<?xml version="1.0" encoding="utf-8"?>
<!-- Generator: Adobe Illustrator 27.5.0, SVG Export Plug-In . SVG Version: 6.00 Build 0)  -->
<svg version="1.1" id="Layer_1" xmlns="http://www.w3.org/2000/svg" xmlns:xlink="http://www.w3.org/1999/xlink" x="0px" y="0px"
	 viewBox="0 0 500 74.2" style="enable-background:new 0 0 500 74.2;" xml:space="preserve">
<style type="text/css">
	.st0{fill:#4195D1;}
	.st1{fill:#003762;}
	.st2{fill-rule:evenodd;clip-rule:evenodd;fill:#4195D1;}
	.st3{fill-rule:evenodd;clip-rule:evenodd;fill:#003762;}
</style>
<g>
	<path class="st0" d="M196.9,58.4c37.4-19.4,67.9-23.3,88.2-23.6c58.2-0.6,80.3,28.7,138,18.2c14.9-2.7,27.4-7.2,50.5-7.4
		c20.4-0.1,40.6,3.1,59.9,9.4v18.2H196.9"/>
</g>
<g>
	<path class="st1" d="M-0.8,67.7c55.7-13.9,101-16.7,131.3-16.8c86.7-0.4,119.5,20.5,205.4,13c22.1-1.9,40.8-5.2,75.2-5.3
		c30.3-0.1,60.4,2.2,89.2,6.7v13h-501"/>
</g>
<path class="st2" d="M433.4,31c0.1-0.1,0.3-0.1,0.4-0.2c0.2,0,0.3-0.1,0.5,0c0.2,0,0.4,0.1,0.5,0.1c0.2,0.1,0.3,0.1,0.4,0.2
	c0.1,0.1,0.3,0.2,0.4,0.3c0.1,0.1,0.3,0.3,0.4,0.4c0.1,0.2,0.2,0.4,0.3,0.5c0.1,0.2,0.1,0.3,0.1,0.5c0,0.2,0,0.4,0,0.6
	c-0.2,1.1-1.1,1.8-2.1,2.1c-0.4,0.1-0.8,0.2-1.3,0.3c-0.6,0.1-1.3,0.2-1.8,0.3s-0.7,0.2-0.9,0.2c-0.2,0.1-0.3,0.1-0.3,0.2
	c-0.1,0-0.1,0,0,0c0-0.1,0-0.2,0-0.3c0-0.1-0.1-0.3-0.1-0.5c-0.1-0.2-0.2-0.5-0.2-0.8c-0.1-0.3-0.2-0.5-0.3-0.8
	c-0.1-0.3-0.2-0.7-0.4-1c-0.1-0.4-0.2-0.7-0.2-1c-0.2-1.2,0.4-2.6,1.5-3c0.2-0.1,0.5-0.2,0.8-0.2c0.3,0,0.5,0,0.7,0.1
	c0.2,0.1,0.4,0.2,0.6,0.3c0.2,0.1,0.3,0.3,0.5,0.4c0.1,0.2,0.2,0.3,0.3,0.5c0.1,0.2,0.1,0.3,0.1,0.5c0,0.1,0,0.3,0,0.4
	C433,31.4,433,31.1,433.4,31L433.4,31z"/>
<path class="st3" d="M61.9,23.6c4.7-3.4,11.2-2.4,14.6,2.2c1.4,1.9,2.1,4.2,2,6.4c0.6-0.8,1.4-1.6,2.3-2.3
	c4.7-3.4,11.2-2.4,14.6,2.2c3.4,4.7,2,11.5-2.2,14.6c-4.2,3.1-9.3,2-12.9-0.6c0.3,0.4,1,1.5,1.4,2c0.4,0.5,0.8,1.2,1.3,1.6
	c0.4,0.5,0.9,0.8,1.4,1.2c0.5,0.3,1,0.6,1.5,0.9c0.5,0.2,1.1,0.4,1.7,0.6c0.6,0.2,1.2,0.4,1.9,0.6c0.7,0.2,1.4,0.3,1.8,0.3
	c0.5,0,0.7,0,0.9,0c0.1,0,0.1,0-1.7,1.3c-1.8,1.4-5.5,4.1-7.3,5.4c-1.8,1.4-1.8,1.4-1.8,1.1c0-0.2,0.1-0.7,0.2-1.5
	c0.1-0.7,0.2-1.7,0.2-2.7c0-0.9-0.1-1.7-0.3-2.5c-0.2-0.8-0.4-1.7-0.8-2.6c-0.4-0.9-1.1-2-1.8-2.8c-0.4-0.4-0.7-0.8-1.1-1.1
	c1.8,4.4,0.5,9.5-3.5,12.5c-4.7,3.4-11.2,2.4-14.6-2.2c-3.4-4.7-2.4-11.2,2.2-14.6c5.4-4,2.2,0.6-2.4-5.6
	C56.2,33.6,57.2,27.1,61.9,23.6L61.9,23.6z"/>
<path class="st2" d="M140.5,21.1c2,1.4,2.5,4.1,1.1,6.1c-0.6,0.8-1.4,1.4-2.3,1.7c0.4,0.1,0.8,0.3,1.2,0.6c2,1.4,2.5,4.1,1.1,6.1
	c-1.4,2-4.3,2.4-6.1,1.1c-1.8-1.2-2.1-3.4-1.5-5.2c-0.1,0.2-0.4,0.6-0.6,0.8c-0.2,0.2-0.3,0.5-0.5,0.7c-0.1,0.2-0.2,0.5-0.3,0.7
	c-0.1,0.2-0.1,0.5-0.1,0.7c0,0.2,0,0.5,0,0.7c0,0.3,0,0.5,0,0.8c0,0.3,0.1,0.6,0.1,0.8c0,0.2,0.1,0.3,0.1,0.3c0,0.1,0,0.1-0.8-0.5
	c-0.8-0.5-2.3-1.6-3.1-2.1c-0.8-0.5-0.8-0.5-0.7-0.6c0.1,0,0.3-0.1,0.6-0.1c0.3-0.1,0.7-0.1,1.1-0.3c0.4-0.1,0.7-0.3,1-0.4
	c0.3-0.2,0.6-0.4,0.9-0.7c0.3-0.3,0.6-0.7,0.8-1.1c0.1-0.2,0.2-0.4,0.3-0.6c-1.5,1.3-3.7,1.5-5.4,0.3c-2-1.4-2.5-4.1-1.1-6.1
	c1.4-2,4.1-2.5,6.1-1.1c2.3,1.6,0.1,0.9,1.9-1.7C135.8,20.2,138.5,19.7,140.5,21.1L140.5,21.1z"/>
<path class="st2" d="M394.8,41.4c2,1.4,2.5,4.1,1.1,6.1c-0.6,0.8-1.4,1.4-2.3,1.7c0.4,0.1,0.8,0.3,1.2,0.6c2,1.4,2.5,4.1,1.1,6.1
	c-1.4,2-4.3,2.4-6.1,1.1c-1.8-1.2-2.1-3.4-1.5-5.2c-0.1,0.2-0.4,0.6-0.6,0.8c-0.2,0.2-0.3,0.5-0.5,0.7c-0.1,0.2-0.2,0.5-0.3,0.7
	c-0.1,0.2-0.1,0.5-0.1,0.7c0,0.2,0,0.5,0,0.7c0,0.3,0,0.5,0,0.8c0,0.3,0.1,0.6,0.1,0.8c0,0.2,0.1,0.3,0.1,0.3c0,0.1,0,0.1-0.8-0.5
	c-0.8-0.5-2.3-1.6-3.1-2.1c-0.8-0.5-0.8-0.5-0.7-0.6c0.1,0,0.3-0.1,0.6-0.1c0.3-0.1,0.7-0.1,1.1-0.3c0.4-0.1,0.7-0.3,1-0.4
	c0.3-0.2,0.6-0.4,0.9-0.7c0.3-0.3,0.6-0.7,0.8-1.1c0.1-0.2,0.2-0.4,0.3-0.6c-1.5,1.3-3.7,1.5-5.4,0.3c-2-1.4-2.5-4.1-1.1-6.1
	c1.4-2,4.1-2.5,6.1-1.1c2.3,1.6,0.1,0.9,1.9-1.7C390.1,40.5,392.9,40,394.8,41.4L394.8,41.4z"/>
</svg>
