<?xml version="1.0" encoding="utf-8"?>
<!-- Generator: Adobe Illustrator 27.5.0, SVG Export Plug-In . SVG Version: 6.00 Build 0)  -->
<svg version="1.1" id="Layer_1" xmlns="http://www.w3.org/2000/svg" xmlns:xlink="http://www.w3.org/1999/xlink" x="0px" y="0px"
	 viewBox="0 0 500 74.2" style="enable-background:new 0 0 500 74.2;" xml:space="preserve">
<style type="text/css">
	.st0{opacity:0.5;}
	.st1{fill:#FFFFFF;}
	.st2{fill-rule:evenodd;clip-rule:evenodd;fill:#FFFFFF;}
	.st3{fill:#003762;}
</style>
<g class="st0">
	<g>
		<path class="st1" d="M87.1,65.1V50.3C124.5,30.9,155,27,175.3,26.7c58.2-0.6,80.3,28.7,138,18.2c14.9-2.7,27.4-7.2,50.5-7.4
			c20.4-0.1,40.6,3.1,59.9,9.4v18.2H87.1"/>
	</g>
	<path class="st2" d="M105.9,20.4c0.1-0.1,0.3-0.1,0.4-0.2c0.2,0,0.3-0.1,0.5,0c0.2,0,0.4,0.1,0.5,0.1c0.2,0.1,0.3,0.1,0.4,0.2
		c0.1,0.1,0.3,0.2,0.4,0.3s0.3,0.3,0.4,0.4c0.1,0.2,0.2,0.4,0.3,0.5c0.1,0.2,0.1,0.3,0.1,0.5s0,0.4,0,0.6c-0.2,1.1-1.1,1.8-2.1,2.1
		c-0.4,0.1-0.8,0.2-1.3,0.3c-0.6,0.1-1.3,0.2-1.8,0.3s-0.7,0.2-0.9,0.2c-0.2,0.1-0.3,0.1-0.3,0.2c-0.1,0-0.1,0,0,0
		c0-0.1,0-0.2,0-0.3s-0.1-0.3-0.1-0.5c-0.1-0.2-0.2-0.5-0.2-0.8c-0.1-0.3-0.2-0.5-0.3-0.8c-0.1-0.3-0.2-0.7-0.4-1
		c-0.1-0.4-0.2-0.7-0.2-1c-0.2-1.2,0.4-2.6,1.5-3c0.2-0.1,0.5-0.2,0.8-0.2s0.5,0,0.7,0.1s0.4,0.2,0.6,0.3s0.3,0.3,0.5,0.4
		c0.1,0.2,0.2,0.3,0.3,0.5c0.1,0.2,0.1,0.3,0.1,0.5C105.8,20.2,105.8,20.4,105.9,20.4C105.5,20.8,105.5,20.5,105.9,20.4L105.9,20.4z
		"/>
	<path class="st2" d="M129.1,10.4c1.5-1.9,4.3-2.2,6.2-0.6c0.8,0.7,1.3,1.5,1.5,2.4c0.1-0.4,0.4-0.8,0.7-1.2
		c1.5-1.9,4.3-2.2,6.2-0.6c1.9,1.5,2.1,4.5,0.6,6.2c-1.3,1.7-3.6,1.8-5.3,1.1c0.2,0.1,0.6,0.4,0.8,0.7c0.2,0.2,0.5,0.3,0.7,0.6
		c0.2,0.1,0.5,0.2,0.7,0.4c0.2,0.1,0.5,0.1,0.7,0.2s0.5,0,0.7,0.1c0.3,0,0.5,0,0.8,0.1s0.6-0.1,0.8,0s0.3-0.1,0.3-0.1
		c0.1,0,0.1,0-0.6,0.8c-0.6,0.8-1.8,2.2-2.3,2.9s-0.6,0.8-0.7,0.7c0-0.1-0.1-0.3-0.1-0.6c-0.1-0.3,0-0.7-0.2-1.1
		c-0.1-0.4-0.2-0.7-0.3-1c-0.2-0.3-0.4-0.6-0.6-1c-0.3-0.3-0.7-0.7-1-0.9c-0.2-0.1-0.4-0.2-0.6-0.3c1.2,1.6,1.2,3.8-0.1,5.4
		c-1.5,1.9-4.3,2.2-6.2,0.6c-1.9-1.5-2.2-4.3-0.6-6.2c1.8-2.2,0.9,0-1.5-2C127.8,15,127.5,12.3,129.1,10.4L129.1,10.4z"/>
	<path class="st2" d="M197.4,14.7c2,1.4,2.5,4.1,1.1,6.1c-0.6,0.8-1.4,1.4-2.3,1.7c0.4,0.1,0.8,0.3,1.2,0.6c2,1.4,2.5,4.1,1.1,6.1
		s-4.3,2.4-6.1,1.1c-1.8-1.2-2.1-3.4-1.5-5.2c-0.1,0.2-0.4,0.6-0.6,0.8s-0.3,0.5-0.5,0.7c-0.1,0.2-0.2,0.5-0.3,0.7s-0.1,0.5-0.1,0.7
		s0,0.5,0,0.7c0,0.3,0,0.5,0,0.8s0.1,0.6,0.1,0.8s0.1,0.3,0.1,0.3c0,0.1,0,0.1-0.8-0.5c-0.8-0.5-2.3-1.6-3.1-2.1s-0.8-0.5-0.7-0.6
		c0.1,0,0.3-0.1,0.6-0.1c0.3-0.1,0.7-0.1,1.1-0.3c0.4-0.1,0.7-0.3,1-0.4c0.3-0.2,0.6-0.4,0.9-0.7s0.6-0.7,0.8-1.1
		c0.1-0.2,0.2-0.4,0.3-0.6c-1.5,1.3-3.7,1.5-5.4,0.3c-2-1.4-2.5-4.1-1.1-6.1s4.1-2.5,6.1-1.1c2.3,1.6,0.1,0.9,1.9-1.7
		C192.7,13.8,195.5,13.3,197.4,14.7L197.4,14.7z"/>
</g>
<path class="st3" d="M-7,46.4v33.7h514V17c-29-9.9-61.8-6.6-91.8,1.3c-33.8,8.9-69.3,26.5-103.6,33.7c-35.2,7.4-72,7-107.3-0.2
	c-24.8-5-48.8-13.3-73.7-17.9C84.5,25.4,36.9,29.7-7,46.4z"/>
</svg>
