<?xml version="1.0" encoding="utf-8"?>
<!-- Generator: Adobe Illustrator 27.5.0, SVG Export Plug-In . SVG Version: 6.00 Build 0)  -->
<svg version="1.1" id="Layer_1" xmlns="http://www.w3.org/2000/svg" xmlns:xlink="http://www.w3.org/1999/xlink" x="0px" y="0px"
	 viewBox="0 0 500 74.2" style="enable-background:new 0 0 500 74.2;" xml:space="preserve">
<style type="text/css">
	.st0{opacity:0.25;}
	.st1{fill:#FFFFFF;}
	.st2{fill:#003762;}
</style>
<g class="st0">
	<g>
		<polygon class="st1" points="351.6,47.4 369.3,63.1 362.2,40.6 		"/>
		<polygon class="st1" points="351.3,45.8 360.9,39.6 352.1,36.6 		"/>
		<polygon class="st1" points="370.7,35.1 363.5,39.7 369.6,59.1 		"/>
		<polygon class="st1" points="361.1,31.9 363,38.2 369.6,34 		"/>
		<polygon class="st1" points="353.8,35.6 361.4,38.2 359.5,31.9 		"/>
		<polygon class="st1" points="344.8,41.4 349.7,45.7 350.5,37.7 		"/>
		<polygon class="st1" points="342.6,51.5 349.1,47.2 344.1,42.8 		"/>
		<polygon class="st1" points="365.4,61.8 350.3,48.3 343.1,53 		"/>
	</g>
	<g>
		<path class="st1" d="M196.9,58.4c37.4-19.4,67.9-23.3,88.2-23.6c58.2-0.6,80.3,28.7,138,18.2c14.9-2.7,27.4-7.2,50.5-7.4
			c20.4-0.1,40.6,3.1,59.9,9.4v18.2H196.9"/>
	</g>
	<g>
		<polygon class="st1" points="173.7,34.7 168.8,41.6 176.6,38.2 		"/>
		<polygon class="st1" points="174.3,34.5 176.9,37.7 177.6,34.4 		"/>
		<polygon class="st1" points="178.9,41 176.9,38.6 170.3,41.5 		"/>
		<polygon class="st1" points="179.6,37.4 177.4,38.4 179.2,40.6 		"/>
		<polygon class="st1" points="178,35 177.4,37.8 179.6,36.9 		"/>
		<polygon class="st1" points="175.6,32 174.2,33.9 177.1,33.9 		"/>
		<polygon class="st1" points="171.9,31.6 173.7,33.8 175.1,31.8 		"/>
		<polygon class="st1" points="169.1,40.2 173.3,34.2 171.4,31.8 		"/>
	</g>
	<g>
		<polygon class="st1" points="278.9,26.9 274.3,20.2 274.8,28.3 		"/>
		<polygon class="st1" points="278.9,27.4 275.2,28.8 277.9,30.5 		"/>
		<polygon class="st1" points="271.5,29.5 274.3,28.5 273.9,21.5 		"/>
		<polygon class="st1" points="274.5,31.3 274.4,29 271.8,29.9 		"/>
		<polygon class="st1" points="277.3,30.7 274.9,29.2 275.1,31.5 		"/>
		<polygon class="st1" points="280.7,29.5 279.5,27.6 278.5,30.2 		"/>
		<polygon class="st1" points="282.3,26.3 279.8,27.2 281.1,29 		"/>
		<polygon class="st1" points="275.5,20.9 279.5,26.7 282.3,25.7 		"/>
	</g>
	<g>
		<polygon class="st1" points="251.6,18.4 258.1,21.7 254.2,15.5 		"/>
		<polygon class="st1" points="251.4,18 253.7,15.3 250.9,15.2 		"/>
		<polygon class="st1" points="256.3,13.2 254.5,15.2 257.9,20.4 		"/>
		<polygon class="st1" points="253.2,13 254.3,14.8 255.9,13 		"/>
		<polygon class="st1" points="251.3,14.7 253.8,14.9 252.7,13.2 		"/>
		<polygon class="st1" points="249.1,17.2 250.9,18.1 250.5,15.6 		"/>
		<polygon class="st1" points="249.2,20.3 250.9,18.6 249,17.6 		"/>
		<polygon class="st1" points="256.9,21.6 251.3,18.8 249.5,20.7 		"/>
	</g>
</g>
<g>
	<path class="st2" d="M-0.8,67.7c55.7-13.9,101-16.7,131.3-16.8c86.7-0.4,119.5,20.5,205.4,13c22.1-1.9,40.8-5.2,75.2-5.3
		c30.3-0.1,60.4,2.2,89.2,6.7v13h-501"/>
</g>
</svg>
