<?xml version="1.0" encoding="utf-8"?>
<!-- Generator: Adobe Illustrator 27.5.0, SVG Export Plug-In . SVG Version: 6.00 Build 0)  -->
<svg version="1.1" id="Layer_1" xmlns="http://www.w3.org/2000/svg" xmlns:xlink="http://www.w3.org/1999/xlink" x="0px" y="0px"
	 viewBox="0 0 500 74.2" style="enable-background:new 0 0 500 74.2;" xml:space="preserve">
<style type="text/css">
	.st0{fill-rule:evenodd;clip-rule:evenodd;fill:#4195D1;}
	.st1{fill:none;stroke:#4195D1;stroke-width:0.5;stroke-miterlimit:10;}
	.st2{fill:#4195D1;}
	.st3{fill:#003762;}
	.st4{fill-rule:evenodd;clip-rule:evenodd;fill:#003762;}
	.st5{fill:none;stroke:#003762;stroke-width:2;stroke-miterlimit:10;}
	.st6{fill:none;stroke:#4195D1;stroke-width:0.25;stroke-miterlimit:10;}
</style>
<g>
	<path class="st0" d="M404.3,61c0.2,2.7-0.7,5.5-2.6,7.7s-4.6,3.4-7.3,3.6c-2.7,0.2-5.5-0.7-7.7-2.6s-3.4-4.6-3.6-7.3
		s0.7-5.5,2.6-7.7s4.6-3.4,7.3-3.6c2.7-0.2,5.5,0.7,7.7,2.6C402.9,55.6,404.1,58.3,404.3,61L404.3,61z M402.3,58.8
		c-0.8-2.4-2.5-4.2-4.5-5.2c-2.1-1-4.5-1.3-6.9-0.5s-4.2,2.5-5.2,4.5c-1,2.1-1.3,4.5-0.5,6.9s2.5,4.2,4.5,5.2c2.1,1,4.5,1.3,6.9,0.5
		s4.2-2.5,5.2-4.5C402.8,63.6,403,61.2,402.3,58.8L402.3,58.8L402.3,58.8z M410.7,56c3.2,9.4-1.9,19.5-11.2,22.7
		c-9.4,3.2-19.5-1.9-22.7-11.2c-3.2-9.4,1.9-19.5,11.2-22.7C397.4,41.6,407.5,46.6,410.7,56L410.7,56z M410.6,56
		c-0.5-1.3-1.1-2.6-1.8-3.7l-3.3,1.7c-0.2,0.2-0.3,0.5-0.1,0.7c0.5,0.8,0.8,1.7,1.2,2.6c0.3,0.9,0.5,1.8,0.6,2.7
		c0,0.3,0.3,0.5,0.5,0.5l3.7-0.5C411.3,58.7,411.1,57.3,410.6,56L410.6,56z M378.6,71l3.3-1.6c0.2-0.2,0.3-0.5,0.1-0.7
		c-0.5-0.8-0.8-1.7-1.2-2.6c-0.3-0.9-0.5-1.8-0.6-2.7c0-0.3-0.3-0.5-0.5-0.5l-3.8,0.4c0.1,1.4,0.4,2.7,0.8,4.1
		C377.2,68.7,377.9,69.9,378.6,71L378.6,71z M407.1,73.5c0.9-1.1,1.7-2.2,2.3-3.4l-3.2-1.9c-0.3-0.1-0.6,0-0.7,0.3
		c-0.5,0.8-1,1.6-1.6,2.3c-0.6,0.7-1.3,1.4-2.1,1.9c-0.2,0.2-0.3,0.5-0.2,0.7l2.3,2.9C405.1,75.4,406.2,74.5,407.1,73.5L407.1,73.5z
		 M378,53.5l3.2,1.8c0.3,0.1,0.6,0,0.7-0.3c0.5-0.8,1-1.6,1.6-2.3s1.3-1.4,2.1-1.9c0.2-0.2,0.3-0.5,0.2-0.7l-2.3-2.8
		c-1.1,0.8-2.2,1.7-3.1,2.7C379.4,51.1,378.6,52.3,378,53.5L378,53.5z M390.2,79.2c1.4,0.3,2.8,0.4,4.1,0.3v-3.8
		c-0.1-0.3-0.3-0.5-0.6-0.5c-0.9,0-1.9-0.1-2.8-0.3c-0.9-0.2-1.8-0.5-2.7-0.8c-0.3-0.1-0.6,0-0.7,0.2l-1.3,3.5
		C387.5,78.5,388.8,78.9,390.2,79.2L390.2,79.2z M392.8,43.9l0.3,3.7c0.1,0.3,0.3,0.5,0.6,0.5c0.9,0,1.9,0.1,2.8,0.3
		s1.8,0.5,2.7,0.8c0.3,0.1,0.6,0,0.7-0.2l1.1-3.5c-1.2-0.6-2.5-1-3.9-1.3S394.2,43.8,392.8,43.9L392.8,43.9z M389.7,48.9
		c0.5-0.1,0.8-0.6,0.7-1.2c-0.1-0.5-0.6-0.8-1.2-0.7h-0.1c0-0.1,0-0.2,0-0.3c-0.1-0.5-0.6-0.8-1.2-0.7c-0.5,0.1-0.8,0.6-0.7,1.2
		c0,0.1,0.1,0.2,0.1,0.3c0,0,0,0-0.1,0c-0.5,0.1-0.8,0.6-0.7,1.2c0.1,0.5,0.6,0.8,1.2,0.7c0.4-0.1,0.6-0.4,0.7-0.8l0,0
		c0,0.1,0,0.2,0,0.3c0,0.7-0.4,1.2-1.1,1.5L389,50l1.5-0.4c-0.7,0.1-1.4-0.2-1.7-0.8c0-0.1-0.1-0.2-0.1-0.3l0,0
		C389,48.9,389.3,49,389.7,48.9z M385.7,72.4c0-0.6,0-1.1,0.1-1.5c-0.4,0.1-0.9,0.2-1.5,0.3c-0.7,0.1-1.4,0.1-1.9,0
		c0.1,0.4,0.2,1,0.3,1.5c0.1,0.8,0,1.4-0.1,1.9c0.4-0.2,1-0.3,1.8-0.4c0.6,0,1.1,0,1.6,0.1C385.8,73.7,385.7,73.1,385.7,72.4z
		 M404.5,52.4c0.1-0.4,0.1-0.8,0-1.3c-0.1-1-0.1-1.7,0-1.9c-0.2,0-0.8,0.2-1.9,0.2c-0.4,0-0.8,0-1.2,0.2c-0.3,0.1-0.5,0.4-0.6,0.6
		c-0.2,0.4-0.1,1,0.2,1.3c0.4,0.4,1.1,0.1,1.4,0c-0.1,0.1-0.2,0.2-0.3,0.3c-0.6,0.4-1.4,0.5-2-0.1l1.3,1.1l1.3,1.1
		c-0.6-0.5-0.7-1.4-0.3-2c0-0.1,0.1-0.2,0.2-0.3c-0.1,0.3-0.2,1,0.2,1.4c0.3,0.3,0.9,0.3,1.3,0.1C404.2,53,404.4,52.7,404.5,52.4z
		 M396.6,77.3c0.3,0.4,0.8,0.6,1.3,0.4c0.7-0.3,0.7-1.3,0.7-1.5v-0.1c0,0,0,0.1,0.1,0.1c0.1,0.1,0.8,0.9,1.5,0.7
		c0.4-0.1,0.7-0.7,0.7-1.1c0-0.3-0.2-0.6-0.4-0.9c-0.3-0.3-0.7-0.5-1.1-0.7c-1-0.4-1.6-0.8-1.7-0.9c0,0.2-0.2,0.9-0.7,1.8
		c-0.2,0.4-0.4,0.8-0.5,1.2C396.3,76.8,396.4,77.1,396.6,77.3z M409.2,63.4c-0.5-0.5-1.4-0.4-1.8,0.1c-0.5,0.5-0.4,1.4,0.1,1.8
		s1.4,0.4,1.8-0.1C409.8,64.7,409.7,63.8,409.2,63.4z M380.6,57.7c-0.5-0.5-1.4-0.4-1.8,0.1c-0.5,0.5-0.4,1.4,0.1,1.8
		c0.5,0.5,1.4,0.4,1.8-0.1C381.2,59,381.1,58.2,380.6,57.7z"/>
	<path class="st1" d="M410.8,55.9c3.2,9.4-1.9,19.5-11.2,22.7c-9.4,3.2-19.5-1.9-22.7-11.2c-3.2-9.4,1.9-19.5,11.2-22.7
		C397.5,41.5,407.6,46.5,410.8,55.9L410.8,55.9z"/>
</g>
<g>
	<path class="st2" d="M196.9,58.4c37.4-19.4,67.9-23.3,88.2-23.6c58.2-0.6,80.3,28.7,138,18.2c14.9-2.7,27.4-7.2,50.5-7.4
		c20.4-0.1,40.6,3.1,59.9,9.4v18.2H196.9"/>
</g>
<g>
	<path class="st3" d="M-0.8,67.7c55.7-13.9,101-16.7,131.3-16.8c86.7-0.4,119.5,20.5,205.4,13c22.1-1.9,40.8-5.2,75.2-5.3
		c30.3-0.1,60.4,2.2,89.2,6.7v13h-501"/>
</g>
<g>
	<path class="st0" d="M403.8,25.7c-1.1,0.5-2.3,0.6-3.5,0.1c-1.2-0.4-2.1-1.3-2.6-2.4s-0.6-2.3-0.1-3.5c0.4-1.2,1.3-2.1,2.4-2.6
		s2.3-0.6,3.5-0.1c1.2,0.4,2.1,1.3,2.6,2.4s0.6,2.3,0.1,3.5C405.8,24.3,404.9,25.2,403.8,25.7L403.8,25.7z M404.4,24.5
		c0.8-0.7,1.3-1.6,1.4-2.6s-0.2-2-0.9-2.8c-0.7-0.8-1.6-1.3-2.6-1.4s-2,0.2-2.8,0.9c-0.8,0.7-1.3,1.6-1.4,2.6s0.2,2,0.9,2.8
		c0.7,0.8,1.6,1.3,2.6,1.4C402.5,25.5,403.6,25.2,404.4,24.5L404.4,24.5L404.4,24.5z M406.8,27.4c-3.3,2.7-8.1,2.3-10.9-1
		c-2.7-3.3-2.3-8.1,1-10.9c3.3-2.7,8.1-2.3,10.9,1C410.6,19.8,410.1,24.7,406.8,27.4L406.8,27.4z M406.8,27.4
		c0.5-0.4,0.9-0.8,1.2-1.3l-1.2-1.1c-0.1-0.1-0.2,0-0.3,0.1c-0.3,0.3-0.5,0.6-0.9,0.9c-0.3,0.3-0.7,0.5-1,0.7
		c-0.1,0.1-0.2,0.2-0.1,0.3l0.8,1.4C405.8,28.1,406.3,27.8,406.8,27.4L406.8,27.4z M395.8,16.9L397,18c0.1,0.1,0.2,0,0.3-0.1
		c0.3-0.3,0.5-0.6,0.9-0.9c0.3-0.3,0.7-0.5,1-0.7c0.1-0.1,0.2-0.2,0.1-0.3l-0.7-1.4c-0.5,0.3-1,0.6-1.5,1
		C396.5,16,396.1,16.4,395.8,16.9L395.8,16.9z M399.2,28.7c0.6,0.2,1.2,0.3,1.7,0.4l0.3-1.6c0-0.1-0.1-0.2-0.2-0.2
		c-0.4-0.1-0.8-0.2-1.2-0.3s-0.8-0.3-1.1-0.5c-0.1-0.1-0.2,0-0.3,0l-0.8,1.4C398.1,28.2,398.7,28.5,399.2,28.7L399.2,28.7z
		 M402.8,13.9l-0.2,1.6c0,0.1,0.1,0.2,0.2,0.2c0.4,0.1,0.8,0.2,1.2,0.3s0.8,0.3,1.1,0.5c0.1,0.1,0.2,0,0.3,0l0.8-1.4
		c-0.5-0.3-1-0.6-1.6-0.8C403.9,14.1,403.3,14,402.8,13.9L402.8,13.9z M394.3,22.8c0.1,0.6,0.3,1.2,0.5,1.7l1.5-0.6
		c0.1-0.1,0.1-0.2,0.1-0.3c-0.1-0.4-0.2-0.8-0.3-1.2c-0.1-0.4-0.1-0.8-0.1-1.2c0-0.1-0.1-0.2-0.2-0.3h-1.6
		C394.2,21.6,394.2,22.2,394.3,22.8L394.3,22.8z M408.9,18.4l-1.5,0.7c-0.1,0.1-0.1,0.2-0.1,0.3c0.1,0.4,0.2,0.8,0.3,1.2
		c0.1,0.4,0.1,0.8,0.1,1.2c0,0.1,0.1,0.2,0.2,0.3l1.6-0.1c0-0.6,0-1.2-0.1-1.8C409.3,19.5,409.1,18.9,408.9,18.4L408.9,18.4z
		 M406.4,17.9c0.1,0.2,0.4,0.2,0.6,0.1s0.2-0.4,0.1-0.6l0,0c0,0,0.1,0,0.1-0.1c0.2-0.1,0.2-0.4,0.1-0.6s-0.4-0.2-0.6-0.1l-0.1,0.1
		l0,0c-0.1-0.2-0.4-0.2-0.6-0.1s-0.2,0.4-0.1,0.6c0.1,0.1,0.3,0.2,0.4,0.2l0,0c0,0-0.1,0-0.1,0.1c-0.3,0.1-0.6,0-0.8-0.2l0.4,0.6
		l0.4,0.6c-0.2-0.3-0.2-0.6,0-0.8l0.1-0.1l0,0C406.3,17.6,406.3,17.8,406.4,17.9z M396.4,19.9c0.2-0.1,0.5-0.2,0.6-0.2
		c-0.1-0.1-0.2-0.3-0.4-0.6c-0.1-0.3-0.2-0.5-0.3-0.8c-0.2,0.1-0.3,0.2-0.6,0.3c-0.3,0.1-0.6,0.2-0.8,0.2c0.1,0.1,0.3,0.4,0.4,0.7
		c0.1,0.2,0.2,0.5,0.2,0.6C395.8,20.2,396.1,20,396.4,19.9z M407.3,24.4c0.2,0,0.3-0.1,0.5-0.2c0.4-0.2,0.7-0.3,0.7-0.3
		c0-0.1-0.2-0.3-0.4-0.7c-0.1-0.2-0.1-0.3-0.3-0.5c-0.1-0.1-0.2-0.2-0.4-0.2c-0.2,0-0.4,0.1-0.5,0.3c-0.1,0.2,0.1,0.5,0.2,0.6
		c-0.1,0-0.1-0.1-0.2-0.1c-0.3-0.2-0.4-0.5-0.3-0.8l-0.3,0.7l-0.3,0.7c0.1-0.3,0.5-0.5,0.8-0.4c0,0,0.1,0,0.2,0
		c-0.1,0-0.4,0.1-0.5,0.3c-0.1,0.2,0,0.4,0.2,0.5C407,24.4,407.1,24.4,407.3,24.4z M396.1,25.1c-0.1,0.2-0.1,0.4,0,0.6
		c0.2,0.2,0.6,0.1,0.7,0l0,0l0,0c0,0.1-0.3,0.5-0.1,0.7c0.1,0.2,0.4,0.2,0.6,0.1c0.1-0.1,0.2-0.2,0.3-0.3c0.1-0.2,0.1-0.4,0.1-0.6
		c0-0.5,0.1-0.8,0.1-0.8c-0.1,0-0.4,0-0.8,0c-0.2,0-0.4-0.1-0.6,0C396.2,24.9,396.1,25,396.1,25.1z M403.6,28c0.1-0.3,0-0.6-0.3-0.7
		s-0.6,0-0.7,0.3s0,0.6,0.3,0.7C403.2,28.4,403.5,28.3,403.6,28z M401.5,15.6c0.1-0.3,0-0.6-0.3-0.7c-0.3-0.1-0.6,0-0.7,0.3
		s0,0.6,0.3,0.7C401,16,401.4,15.9,401.5,15.6z"/>
	<path class="st1" d="M406.9,27.5c-3.3,2.7-8.1,2.3-10.9-1c-2.7-3.3-2.3-8.1,1-10.9c3.3-2.7,8.1-2.3,10.9,1
		C410.6,19.9,410.2,24.7,406.9,27.5L406.9,27.5z"/>
</g>
<g>
	<path class="st4" d="M117.7,77.6c3.6,10,3.3,21.4-1.6,31.8s-13.6,17.8-23.6,21.3c-10,3.6-21.4,3.3-31.8-1.6
		c-10.4-4.9-17.8-13.6-21.3-23.6c-3.6-10-3.3-21.4,1.6-31.8C46,63.4,54.7,56,64.7,52.4s21.4-3.3,31.8,1.6
		C106.8,58.9,114.2,67.6,117.7,77.6L117.7,77.6z M107.6,71.5c-5.5-8-13.8-13-22.6-14.6c-8.9-1.6-18.4,0.1-26.4,5.7
		c-8,5.5-13,13.8-14.6,22.6c-1.6,8.9,0.1,18.4,5.7,26.4c5.5,8,13.8,13,22.6,14.6c8.9,1.6,18.4-0.1,26.4-5.7c8-5.5,13-13.8,14.6-22.6
		C114.9,89,113.1,79.6,107.6,71.5L107.6,71.5L107.6,71.5z M136.2,51.8c22,31.8,14,75.4-17.9,97.4c-31.8,22-75.4,14-97.4-17.9
		C-1,99.5,7,55.9,38.9,33.9C70.7,12,114.3,20,136.2,51.8L136.2,51.8z M135.9,51.9c-3.1-4.6-6.8-8.6-10.7-12.1l-10.5,10.1
		c-0.6,0.9-0.5,2.1,0.3,2.9c2.6,2.5,5,5.3,7.1,8.4c2.1,3.1,3.9,6.3,5.3,9.6c0.4,1,1.5,1.6,2.6,1.3l13.4-5.9
		C141.6,61.2,139.1,56.4,135.9,51.9L135.9,51.9z M31.8,142.9l10.8-9.7c0.6-0.9,0.5-2.1-0.3-2.9c-2.6-2.5-5-5.3-7.1-8.4
		s-3.9-6.3-5.3-9.6c-0.4-1-1.5-1.6-2.6-1.3l-13.7,5.6c1.8,5,4.3,9.8,7.5,14.3C24.2,135.4,27.9,139.4,31.8,142.9L31.8,142.9z
		 M141.5,121.4c2.4-5,4-10.1,5.1-15.3l-13.9-3.8c-1.1-0.1-2.1,0.7-2.4,1.7c-0.9,3.5-2.1,6.9-3.7,10.3c-1.6,3.4-3.5,6.5-5.6,9.4
		c-0.7,0.9-0.6,2.1,0.1,2.9l11.8,8.4C136.2,130.9,139.1,126.4,141.5,121.4L141.5,121.4z M10.7,77.5l13.9,3.3
		c1.1,0.1,2.1-0.7,2.4-1.7c0.9-3.5,2.1-6.9,3.7-10.3s3.5-6.5,5.6-9.4c0.7-0.9,0.6-2.1-0.1-2.9l-11.8-7.9c-3.4,4.1-6.3,8.6-8.7,13.6
		C13.4,67.2,11.7,72.4,10.7,77.5L10.7,77.5z M84.2,161.1c5.5-0.4,10.8-1.6,15.8-3.3l-3.9-14.2c-0.5-1-1.6-1.5-2.7-1.2
		c-3.5,1-7.1,1.6-10.8,1.9c-3.7,0.3-7.4,0.2-11-0.2c-1.1-0.1-2.1,0.5-2.5,1.6l-1.2,14.6C73.3,161.3,78.7,161.5,84.2,161.1
		L84.2,161.1z M56.1,25.7l5.1,13.8c0.5,1,1.6,1.5,2.7,1.2c3.5-1,7.1-1.6,10.8-1.9c3.7-0.3,7.4-0.2,11,0.2c1.1,0.1,2.1-0.5,2.5-1.6
		L88.7,23c-5.2-0.9-10.6-1.2-16.1-0.7C67,22.7,61.1,24,56.1,25.7L56.1,25.7z M49.9,47.8c1.8-1,2.4-3.3,1.3-5.1
		c-1-1.8-3.3-2.4-5.1-1.3c-0.1,0.1-0.3,0.2-0.4,0.3c-0.1-0.4-0.2-0.7-0.4-1.1c-1-1.8-3.3-2.4-5.1-1.3c-1.8,1-2.4,3.3-1.3,5.1
		c0.2,0.3,0.4,0.6,0.7,0.9c-0.1,0-0.2,0.1-0.2,0.1c-1.8,1-2.4,3.3-1.3,5.1c1,1.8,3.3,2.4,5.1,1.3c1.3-0.8,2-2.3,1.8-3.7h0.1
		c0.2,0.4,0.4,0.8,0.5,1.1c0.8,2.4-0.3,5.1-2.7,6.8l5.4-3.1l5.4-3.1c-2.6,1.2-5.5,0.9-7.2-1c-0.2-0.2-0.4-0.5-0.6-0.9
		c0.1,0,0.1-0.1,0.2-0.1C47.1,48.5,48.6,48.6,49.9,47.8z M59.9,140.2c-0.7-2.2-1-4.2-1.2-5.9c-1.4,0.9-3.2,1.9-5.3,2.8
		c-2.6,1-5,1.6-7.1,2c0.9,1.5,1.9,3.3,2.7,5.5c1,2.9,1.4,5.3,1.4,7.1c1.4-1.1,3.6-2.4,6.4-3.4c2.2-0.8,4.3-1.2,6-1.4
		C61.8,145.1,60.8,142.8,59.9,140.2z M109,45.2c0.1-1.8-0.6-3.2-1.3-4.8c-1.5-3.7-2-6.3-2.1-7c-0.6,0.4-2.9,1.6-6.8,2.8
		c-1.6,0.5-3.2,0.9-4.5,2c-0.9,0.8-1.6,1.9-1.7,3.1c-0.2,1.7,0.6,3.7,2.2,4.5c2,0.9,4.2-0.7,5.2-1.6c-0.2,0.5-0.6,1.1-0.8,1.4
		c-1.7,2.2-4.9,3.3-7.7,2l6,2.9l6,2.9c-2.8-1.3-4-4.6-3.4-7.2c0.1-0.4,0.3-0.9,0.5-1.3c0,1.3,0.1,4,2.1,5c1.6,0.8,3.7,0.1,4.9-1.1
		C108.5,47.7,109,46.4,109,45.2z M106.3,147.2c1.4,1,3.7,1.3,5.2,0.2c2.3-1.7,1.1-5.7,0.9-6.2c0-0.2-0.1-0.3-0.2-0.5
		c0.1,0.1,0.2,0.2,0.4,0.3c0.4,0.3,3.9,2.7,6.2,1c1.5-1,2-3.3,1.4-5c-0.4-1.2-1.3-2.2-2.3-2.8c-1.6-1-3.2-1-5-1.2
		c-4.2-0.5-6.7-1.3-7.5-1.6c0,0.8,0,3.5-0.8,7.5c-0.4,1.7-0.8,3.3-0.4,5.1C104.6,145.3,105.3,146.5,106.3,147.2z M138.6,81.2
		c-2.5-1.2-5.6-0.1-6.8,2.4s-0.1,5.6,2.4,6.8s5.6,0.1,6.8-2.4C142.2,85.4,141.1,82.4,138.6,81.2z M25,90.6c-2.5-1.2-5.6-0.1-6.8,2.4
		s-0.1,5.6,2.4,6.8s5.6,0.1,6.8-2.4S27.6,91.8,25,90.6z"/>
	<path class="st5" d="M136.6,51.4c22,31.8,14,75.4-17.9,97.4c-31.8,22-75.4,14-97.4-17.9c-22-31.8-14-75.4,17.9-97.4
		S114.7,19.5,136.6,51.4L136.6,51.4z"/>
</g>
<g>
	<path class="st0" d="M174.6,44.3c-0.6,0.5-1.3,0.7-2.1,0.6c-0.8-0.1-1.5-0.5-1.9-1.1c-0.5-0.6-0.7-1.3-0.6-2.1
		c0.1-0.8,0.5-1.5,1.1-1.9c0.6-0.5,1.3-0.7,2.1-0.6c0.8,0.1,1.5,0.5,1.9,1.1c0.5,0.6,0.7,1.3,0.6,2.1
		C175.6,43.2,175.2,43.9,174.6,44.3L174.6,44.3z M174.8,43.5c0.4-0.5,0.5-1.2,0.5-1.8c-0.1-0.6-0.4-1.2-0.9-1.6
		c-0.5-0.4-1.2-0.5-1.8-0.5c-0.6,0.1-1.2,0.4-1.6,0.9c-0.4,0.5-0.5,1.2-0.5,1.8c0.1,0.6,0.4,1.2,0.9,1.6c0.5,0.4,1.2,0.5,1.8,0.5
		S174.4,44.1,174.8,43.5L174.8,43.5L174.8,43.5z M176.7,45c-1.6,2.1-4.6,2.6-6.7,1c-2.1-1.6-2.6-4.6-1-6.7c1.6-2.1,4.6-2.6,6.7-1
		C177.8,39.8,178.3,42.9,176.7,45L176.7,45z M176.7,45c0.2-0.3,0.4-0.6,0.5-1l-0.9-0.5c-0.1,0-0.1,0-0.2,0.1
		c-0.1,0.2-0.2,0.4-0.4,0.6c-0.2,0.2-0.3,0.4-0.5,0.6c-0.1,0.1-0.1,0.1,0,0.2l0.7,0.7C176.2,45.5,176.4,45.3,176.7,45L176.7,45z
		 M168.5,40.2l0.9,0.5c0.1,0,0.1,0,0.2-0.1c0.1-0.2,0.2-0.4,0.4-0.6c0.2-0.2,0.3-0.4,0.5-0.6c0.1-0.1,0.1-0.1,0-0.2l-0.7-0.8
		c-0.3,0.2-0.5,0.5-0.8,0.8C168.8,39.5,168.6,39.8,168.5,40.2L168.5,40.2z M172.3,46.8c0.4,0,0.7,0,1.1,0l-0.1-1
		c0-0.1-0.1-0.1-0.2-0.1c-0.2,0-0.5,0-0.8,0s-0.5-0.1-0.7-0.2c-0.1,0-0.1,0-0.2,0.1l-0.3,0.9C171.5,46.7,171.9,46.8,172.3,46.8
		L172.3,46.8z M172.3,37.4l0.1,1c0,0.1,0.1,0.1,0.2,0.1c0.2,0,0.5,0,0.8,0s0.5,0.1,0.7,0.2c0.1,0,0.1,0,0.2-0.1l0.3-0.9
		c-0.3-0.1-0.7-0.2-1.1-0.3C173,37.3,172.6,37.3,172.3,37.4L172.3,37.4z M168.4,44c0.1,0.3,0.3,0.7,0.6,1l0.8-0.6
		c0.1-0.1,0.1-0.1,0-0.2c-0.1-0.2-0.3-0.4-0.4-0.7c-0.1-0.2-0.2-0.5-0.2-0.7c0-0.1-0.1-0.1-0.2-0.1l-1,0.2
		C168.2,43.3,168.3,43.6,168.4,44L168.4,44z M176.6,39.2l-0.8,0.6c-0.1,0.1-0.1,0.1,0,0.2c0.1,0.2,0.3,0.4,0.4,0.7
		c0.1,0.2,0.2,0.5,0.2,0.7c0,0.1,0.1,0.1,0.2,0.1l0.9-0.3c-0.1-0.4-0.2-0.7-0.3-1.1C177.1,39.8,176.8,39.5,176.6,39.2L176.6,39.2z
		 M175,39.3c0.1,0.1,0.3,0.1,0.4,0c0.1-0.1,0.1-0.3,0-0.4l0,0c0,0,0,0,0.1-0.1s0.1-0.3,0-0.4c-0.1-0.1-0.3-0.1-0.4,0c0,0,0,0,0,0.1
		l0,0c-0.1-0.1-0.3-0.1-0.4,0c-0.1,0.1-0.1,0.3,0,0.4c0.1,0.1,0.2,0.1,0.3,0l0,0c0,0,0,0-0.1,0.1s-0.3,0.1-0.5,0l0.3,0.3l0.3,0.3
		c-0.1-0.1-0.2-0.3-0.1-0.5c0,0,0,0,0-0.1l0,0C174.9,39.1,175,39.2,175,39.3z M169.3,41.9c0.1-0.1,0.3-0.2,0.4-0.2
		c-0.1-0.1-0.2-0.2-0.3-0.3s-0.2-0.3-0.3-0.4c-0.1,0.1-0.2,0.2-0.3,0.3c-0.2,0.1-0.3,0.2-0.4,0.2c0.1,0.1,0.2,0.2,0.4,0.3
		c0.1,0.1,0.2,0.3,0.2,0.4C169,42.2,169.1,42.1,169.3,41.9z M176.5,43.1c0.1,0,0.2-0.1,0.3-0.2c0.2-0.2,0.4-0.3,0.4-0.3
		s-0.2-0.2-0.3-0.4c-0.1-0.1-0.1-0.2-0.2-0.2c-0.1,0-0.2-0.1-0.2,0c-0.1,0-0.2,0.1-0.2,0.2c0,0.1,0.1,0.3,0.2,0.3h-0.1
		c-0.2-0.1-0.3-0.2-0.3-0.5l-0.1,0.5l-0.1,0.5c0-0.2,0.2-0.4,0.4-0.4h0.1c-0.1,0-0.3,0.1-0.3,0.2c0,0.1,0.1,0.2,0.2,0.3
		C176.3,43.1,176.4,43.1,176.5,43.1z M169.8,45.1c0,0.1,0,0.3,0.1,0.3c0.2,0.1,0.4-0.1,0.4-0.1l0,0l0,0c0,0-0.1,0.3,0.1,0.4
		c0.1,0.1,0.3,0.1,0.4,0c0.1-0.1,0.1-0.1,0.1-0.2c0-0.1,0-0.2,0-0.4c-0.1-0.3-0.1-0.5-0.1-0.5s-0.2,0.1-0.5,0.1
		c-0.1,0-0.2,0-0.3,0.1C169.9,45,169.8,45,169.8,45.1z M174.8,45.8c0-0.2-0.1-0.4-0.3-0.4s-0.4,0.1-0.4,0.3s0.1,0.4,0.3,0.4
		S174.8,46,174.8,45.8z M171.7,38.6c0-0.2-0.1-0.4-0.3-0.4s-0.4,0.1-0.4,0.3s0.1,0.4,0.3,0.4C171.5,38.9,171.7,38.8,171.7,38.6z"/>
	<path class="st6" d="M176.7,45c-1.6,2.1-4.6,2.6-6.7,1c-2.1-1.6-2.6-4.6-1-6.7c1.6-2.1,4.6-2.6,6.7-1
		C177.9,39.9,178.3,42.9,176.7,45L176.7,45z"/>
</g>
<g>
	<path class="st0" d="M433.4,39.2c-0.8,0-1.4-0.4-1.9-1s-0.8-1.4-0.6-2.1c0-0.8,0.4-1.4,1-1.9s1.4-0.8,2.1-0.6c0.8,0,1.4,0.4,1.9,1
		s0.8,1.4,0.6,2.1c0,0.8-0.4,1.4-1,1.9C434.8,39.1,434.1,39.3,433.4,39.2L433.4,39.2z M434,38.7c0.6-0.1,1.2-0.5,1.6-1
		c0.3-0.5,0.5-1.1,0.4-1.8c-0.1-0.6-0.5-1.2-1-1.6c-0.5-0.3-1.1-0.5-1.8-0.4c-0.6,0.1-1.2,0.5-1.6,1c-0.3,0.5-0.5,1.1-0.4,1.8
		c0.1,0.6,0.5,1.2,1,1.6S433.3,38.9,434,38.7L434,38.7L434,38.7z M434.4,41.1c-2.6,0.4-5.1-1.2-5.6-3.8c-0.4-2.6,1.2-5.1,3.8-5.6
		c2.6-0.4,5.1,1.2,5.6,3.8C438.8,38.1,437,40.7,434.4,41.1L434.4,41.1z M434.4,41.1c0.4-0.1,0.7-0.2,1-0.4l-0.3-1
		c-0.1-0.1-0.1-0.1-0.2-0.1c-0.2,0.1-0.4,0.2-0.7,0.2s-0.5,0.1-0.8,0.1c-0.1,0-0.1,0-0.1,0.1v1C433.7,41.1,434,41.1,434.4,41.1
		L434.4,41.1z M431.7,32l0.3,1c0.1,0.1,0.1,0.1,0.2,0.1c0.2-0.1,0.4-0.2,0.7-0.2s0.5-0.1,0.8-0.1c0.1,0,0.1,0,0.1-0.1v-1.1
		c-0.4-0.1-0.7,0-1.1,0C432.4,31.7,432.1,31.8,431.7,32L431.7,32z M430,39.4c0.3,0.3,0.5,0.5,0.8,0.8l0.6-0.8c0.1-0.1,0-0.1-0.1-0.2
		c-0.1-0.1-0.4-0.3-0.6-0.5s-0.3-0.4-0.4-0.6c-0.1-0.1-0.1-0.1-0.2-0.1l-0.8,0.5C429.5,38.8,429.7,39.2,430,39.4L430,39.4z
		 M436.4,32.6l-0.6,0.8c-0.1,0.1,0,0.1,0.1,0.2c0.1,0.1,0.4,0.3,0.6,0.5s0.3,0.4,0.4,0.6c0.1,0.1,0.1,0.1,0.2,0.1l0.8-0.5
		c-0.2-0.3-0.4-0.6-0.6-1C437,33,436.7,32.7,436.4,32.6L436.4,32.6z M429,34.7c-0.1,0.3-0.3,0.7-0.2,1.1l1,0.1c0.1,0,0.1,0,0.1-0.1
		c0.1-0.2,0.1-0.5,0.2-0.8c0.1-0.2,0.2-0.5,0.3-0.6c0.1-0.1,0-0.1-0.1-0.2l-0.9-0.5C429.4,34.1,429.2,34.4,429,34.7L429,34.7z
		 M438.3,36.8l-1-0.1c-0.1,0-0.1,0-0.1,0.1c-0.1,0.2-0.1,0.5-0.2,0.8c-0.1,0.2-0.2,0.5-0.3,0.6c-0.1,0.1,0,0.1,0.1,0.2l0.9,0.4
		c0.2-0.4,0.3-0.6,0.5-1C438.3,37.6,438.2,37.2,438.3,36.8L438.3,36.8z M437.1,35.8c0,0.1,0.2,0.3,0.3,0.3c0.1,0,0.3-0.2,0.3-0.3
		l0,0c0,0,0,0,0.1,0s0.3-0.2,0.3-0.3s-0.2-0.3-0.3-0.3c0,0,0,0-0.1,0.1l0,0c0-0.1-0.2-0.3-0.3-0.3c-0.1,0-0.3,0.2-0.3,0.3
		s0.1,0.2,0.2,0.2l0,0c0,0,0,0-0.1,0s-0.3-0.1-0.4-0.3v0.4V36c0-0.1,0.1-0.4,0.3-0.4c0,0,0,0,0.1-0.1l0,0
		C437.1,35.6,437.1,35.7,437.1,35.8z M431.1,33.8c0.1,0,0.4,0.1,0.4,0.1c0-0.1,0-0.3,0-0.4c0-0.1,0.1-0.4,0.1-0.5
		c-0.1,0-0.3,0-0.4,0c-0.2-0.1-0.4-0.1-0.4-0.1c0,0.1,0,0.3,0.1,0.5c0,0.1-0.1,0.4-0.1,0.4C430.7,33.8,430.8,33.8,431.1,33.8z
		 M435.6,39.6c0.1,0.1,0.2,0.1,0.4,0.1c0.3,0,0.5,0.1,0.5,0.1s0-0.3,0.1-0.5c0-0.1,0.1-0.2,0-0.3s-0.1-0.2-0.1-0.1
		c-0.1-0.1-0.2-0.1-0.3,0c-0.1,0.1-0.1,0.3-0.1,0.4l-0.1-0.1c-0.1-0.2-0.1-0.4,0.1-0.6l-0.4,0.3l-0.4,0.3c0.1-0.1,0.4-0.2,0.6,0
		l0.1,0.1c-0.1-0.1-0.3-0.1-0.4-0.1C435.5,39.3,435.5,39.4,435.6,39.6C435.4,39.5,435.5,39.5,435.6,39.6z M429.3,36.5
		c-0.1,0.1-0.2,0.2-0.1,0.3c0.1,0.2,0.4,0.2,0.4,0.2l0,0l0,0c0,0-0.3,0.2-0.2,0.4c0,0.1,0.2,0.3,0.3,0.3c0.1,0,0.1,0,0.2-0.1
		s0.1-0.1,0.3-0.3c0.1-0.3,0.3-0.4,0.3-0.4s-0.2-0.1-0.4-0.3c-0.1-0.1-0.1-0.1-0.3-0.1C429.4,36.5,429.4,36.4,429.3,36.5z
		 M432.5,40.4c0.1-0.1,0.2-0.4,0.1-0.5s-0.4-0.2-0.5-0.1c-0.1,0.1-0.2,0.4-0.1,0.5C432.1,40.5,432.3,40.5,432.5,40.4z M435.1,33
		c0.1-0.1,0.2-0.4,0.1-0.5s-0.4-0.2-0.5-0.1c-0.1,0.1-0.2,0.4-0.1,0.5C434.8,33.1,435,33.2,435.1,33z"/>
	<path class="st6" d="M434.4,41.1c-2.6,0.4-5.1-1.2-5.6-3.8c-0.4-2.6,1.2-5.1,3.8-5.6c2.6-0.4,5.1,1.2,5.6,3.8
		C438.8,38.2,437,40.7,434.4,41.1L434.4,41.1z"/>
</g>
</svg>
