<?xml version="1.0" encoding="utf-8"?>
<!-- Generator: Adobe Illustrator 27.5.0, SVG Export Plug-In . SVG Version: 6.00 Build 0)  -->
<svg version="1.1" id="Layer_1" xmlns="http://www.w3.org/2000/svg" xmlns:xlink="http://www.w3.org/1999/xlink" x="0px" y="0px"
	 viewBox="0 0 500 74.2" style="enable-background:new 0 0 500 74.2;" xml:space="preserve">
<style type="text/css">
	.st0{fill-rule:evenodd;clip-rule:evenodd;fill:#4195D1;}
	.st1{fill:none;stroke:#4195D1;stroke-width:0.5;stroke-miterlimit:10;}
	.st2{fill:#4195D1;}
	.st3{fill:#FFFFFF;}
	.st4{fill-rule:evenodd;clip-rule:evenodd;fill:#FFFFFF;}
	.st5{fill:none;stroke:#FFFFFF;stroke-width:0.5;stroke-miterlimit:10;}
	.st6{fill:none;stroke:#4195D1;stroke-width:0.25;stroke-miterlimit:10;}
</style>
<g>
	<path class="st0" d="M404.3,61c0.2,2.7-0.7,5.5-2.6,7.7s-4.6,3.4-7.3,3.6c-2.7,0.2-5.5-0.7-7.7-2.6s-3.4-4.6-3.6-7.3
		s0.7-5.5,2.6-7.7s4.6-3.4,7.3-3.6c2.7-0.2,5.5,0.7,7.7,2.6C402.9,55.6,404.1,58.3,404.3,61C404.3,61,404.3,61,404.3,61z
		 M402.3,58.8c-0.8-2.4-2.5-4.2-4.5-5.2c-2.1-1-4.5-1.3-6.9-0.5s-4.2,2.5-5.2,4.5c-1,2.1-1.3,4.5-0.5,6.9s2.5,4.2,4.5,5.2
		c2.1,1,4.5,1.3,6.9,0.5s4.2-2.5,5.2-4.5C402.8,63.6,403,61.2,402.3,58.8C402.3,58.8,402.3,58.8,402.3,58.8z M410.7,56
		c3.2,9.4-1.9,19.5-11.2,22.7c-9.4,3.2-19.5-1.9-22.7-11.2c-3.2-9.4,1.9-19.5,11.2-22.7C397.4,41.6,407.5,46.6,410.7,56L410.7,56z
		 M410.6,56c-0.5-1.3-1.1-2.6-1.8-3.7l-3.3,1.7c-0.2,0.2-0.3,0.5-0.1,0.7c0.5,0.8,0.8,1.7,1.2,2.6c0.3,0.9,0.5,1.8,0.6,2.7
		c0,0.3,0.3,0.5,0.5,0.5l3.7-0.5C411.3,58.7,411.1,57.3,410.6,56L410.6,56L410.6,56z M378.6,71l3.3-1.6c0.2-0.2,0.3-0.5,0.1-0.7
		c-0.5-0.8-0.8-1.7-1.2-2.6c-0.3-0.9-0.5-1.8-0.6-2.7c0-0.3-0.3-0.5-0.5-0.5l-3.8,0.4c0.1,1.4,0.4,2.7,0.8,4.1
		C377.2,68.7,377.9,69.9,378.6,71L378.6,71L378.6,71z M407.1,73.5c0.9-1.1,1.7-2.2,2.3-3.4l-3.2-1.9c-0.3-0.1-0.6,0-0.7,0.3
		c-0.5,0.8-1,1.6-1.6,2.3c-0.6,0.7-1.3,1.4-2.1,1.9c-0.2,0.2-0.3,0.5-0.2,0.7l2.3,2.9C405.1,75.4,406.2,74.5,407.1,73.5L407.1,73.5
		L407.1,73.5z M378,53.5l3.2,1.8c0.3,0.1,0.6,0,0.7-0.3c0.5-0.8,1-1.6,1.6-2.3s1.3-1.4,2.1-1.9c0.2-0.2,0.3-0.5,0.2-0.7l-2.3-2.8
		c-1.1,0.8-2.2,1.7-3.1,2.7C379.4,51.1,378.6,52.3,378,53.5L378,53.5L378,53.5z M390.2,79.2c1.4,0.3,2.8,0.4,4.1,0.3v-3.8
		c-0.1-0.3-0.3-0.5-0.6-0.5c-0.9,0-1.9-0.1-2.8-0.3c-0.9-0.2-1.8-0.5-2.7-0.8c-0.3-0.1-0.6,0-0.7,0.2l-1.3,3.5
		C387.5,78.5,388.8,78.9,390.2,79.2C390.2,79.2,390.2,79.2,390.2,79.2z M392.8,43.9l0.3,3.7c0.1,0.3,0.3,0.5,0.6,0.5
		c0.9,0,1.9,0.1,2.8,0.3s1.8,0.5,2.7,0.8c0.3,0.1,0.6,0,0.7-0.2l1.1-3.5c-1.2-0.6-2.5-1-3.9-1.3S394.2,43.8,392.8,43.9L392.8,43.9
		L392.8,43.9z M389.7,48.9c0.5-0.1,0.8-0.6,0.7-1.2c-0.1-0.5-0.6-0.8-1.2-0.7h-0.1v-0.3c-0.1-0.5-0.6-0.8-1.2-0.7
		c-0.5,0.1-0.8,0.6-0.7,1.2c0,0.1,0.1,0.2,0.1,0.3h-0.1c-0.5,0.1-0.8,0.6-0.7,1.2c0.1,0.5,0.6,0.8,1.2,0.7c0.4-0.1,0.6-0.4,0.7-0.8
		l0,0v0.3c0,0.7-0.4,1.2-1.1,1.5L389,50l1.5-0.4c-0.7,0.1-1.4-0.2-1.7-0.8c0-0.1-0.1-0.2-0.1-0.3l0,0C389,48.9,389.3,49,389.7,48.9
		L389.7,48.9z M385.7,72.4c0-0.6,0-1.1,0.1-1.5c-0.4,0.1-0.9,0.2-1.5,0.3c-0.7,0.1-1.4,0.1-1.9,0c0.1,0.4,0.2,1,0.3,1.5
		c0.1,0.8,0,1.4-0.1,1.9c0.4-0.2,1-0.3,1.8-0.4c0.6,0,1.1,0,1.6,0.1C385.8,73.7,385.7,73.1,385.7,72.4z M404.5,52.4
		c0.1-0.4,0.1-0.8,0-1.3c-0.1-1-0.1-1.7,0-1.9c-0.2,0-0.8,0.2-1.9,0.2c-0.4,0-0.8,0-1.2,0.2c-0.3,0.1-0.5,0.4-0.6,0.6
		c-0.2,0.4-0.1,1,0.2,1.3c0.4,0.4,1.1,0.1,1.4,0c-0.1,0.1-0.2,0.2-0.3,0.3c-0.6,0.4-1.4,0.5-2-0.1l1.3,1.1l1.3,1.1
		c-0.6-0.5-0.7-1.4-0.3-2c0-0.1,0.1-0.2,0.2-0.3c-0.1,0.3-0.2,1,0.2,1.4c0.3,0.3,0.9,0.3,1.3,0.1C404.2,53,404.4,52.7,404.5,52.4z
		 M396.6,77.3c0.3,0.4,0.8,0.6,1.3,0.4c0.7-0.3,0.7-1.3,0.7-1.5v-0.1c0,0,0,0.1,0.1,0.1c0.1,0.1,0.8,0.9,1.5,0.7
		c0.4-0.1,0.7-0.7,0.7-1.1c0-0.3-0.2-0.6-0.4-0.9c-0.3-0.3-0.7-0.5-1.1-0.7c-1-0.4-1.6-0.8-1.7-0.9c0,0.2-0.2,0.9-0.7,1.8
		c-0.2,0.4-0.4,0.8-0.5,1.2C396.3,76.8,396.4,77.1,396.6,77.3z M409.2,63.4c-0.5-0.5-1.4-0.4-1.8,0.1c-0.5,0.5-0.4,1.4,0.1,1.8
		s1.4,0.4,1.8-0.1C409.8,64.7,409.7,63.8,409.2,63.4z M380.6,57.7c-0.5-0.5-1.4-0.4-1.8,0.1c-0.5,0.5-0.4,1.4,0.1,1.8
		c0.5,0.5,1.4,0.4,1.8-0.1C381.2,59,381.1,58.2,380.6,57.7z"/>
	<path class="st1" d="M410.8,55.9c3.2,9.4-1.9,19.5-11.2,22.7c-9.4,3.2-19.5-1.9-22.7-11.2c-3.2-9.4,1.9-19.5,11.2-22.7
		C397.5,41.5,407.6,46.5,410.8,55.9C410.8,55.9,410.8,55.9,410.8,55.9z"/>
</g>
<path class="st2" d="M196.9,58.4c37.4-19.4,67.9-23.3,88.2-23.6c58.2-0.6,80.3,28.7,138,18.2c14.9-2.7,27.4-7.2,50.5-7.4
	c20.4-0.1,40.6,3.1,59.9,9.4v18.2H196.9"/>
<path class="st3" d="M-0.8,67.7c55.7-13.9,101-16.7,131.3-16.8c86.7-0.4,119.5,20.5,205.4,13c22.1-1.9,40.8-5.2,75.2-5.3
	c30.3-0.1,60.4,2.2,89.2,6.7v13h-501"/>
<g>
	<path class="st0" d="M425,36.7c-1.1,0.5-2.3,0.6-3.5,0.1c-1.2-0.4-2.1-1.3-2.6-2.4s-0.6-2.3-0.1-3.5c0.4-1.2,1.3-2.1,2.4-2.6
		s2.3-0.6,3.5-0.1c1.2,0.4,2.1,1.3,2.6,2.4s0.6,2.3,0.1,3.5C427,35.3,426.1,36.2,425,36.7C425,36.7,425,36.7,425,36.7z M425.6,35.5
		c0.8-0.7,1.3-1.6,1.4-2.6s-0.2-2-0.9-2.8c-0.7-0.8-1.6-1.3-2.6-1.4s-2,0.2-2.8,0.9c-0.8,0.7-1.3,1.6-1.4,2.6c-0.1,1,0.2,2,0.9,2.8
		c0.7,0.8,1.6,1.3,2.6,1.4C423.7,36.5,424.8,36.2,425.6,35.5L425.6,35.5z M428,38.4c-3.3,2.7-8.1,2.3-10.9-1
		c-2.7-3.3-2.3-8.1,1-10.9c3.3-2.7,8.1-2.3,10.9,1S431.3,35.7,428,38.4L428,38.4z M428,38.4c0.5-0.4,0.9-0.8,1.2-1.3L428,36
		c-0.1-0.1-0.2,0-0.3,0.1c-0.3,0.3-0.5,0.6-0.9,0.9c-0.3,0.3-0.7,0.5-1,0.7c-0.1,0.1-0.2,0.2-0.1,0.3l0.8,1.4
		C427,39.1,427.5,38.8,428,38.4C428,38.4,428,38.4,428,38.4z M417,27.9l1.2,1.1c0.1,0.1,0.2,0,0.3-0.1c0.3-0.3,0.5-0.6,0.9-0.9
		c0.3-0.3,0.7-0.5,1-0.7c0.1-0.1,0.2-0.2,0.1-0.3l-0.7-1.4c-0.5,0.3-1,0.6-1.5,1C417.7,27,417.3,27.4,417,27.9L417,27.9z
		 M420.4,39.7c0.6,0.2,1.2,0.3,1.7,0.4l0.3-1.6c0-0.1-0.1-0.2-0.2-0.2c-0.4-0.1-0.8-0.2-1.2-0.3s-0.8-0.3-1.1-0.5
		c-0.1-0.1-0.2,0-0.3,0l-0.8,1.4C419.3,39.2,419.9,39.5,420.4,39.7C420.4,39.7,420.4,39.7,420.4,39.7z M424,24.9l-0.2,1.6
		c0,0.1,0.1,0.2,0.2,0.2c0.4,0.1,0.8,0.2,1.2,0.3s0.8,0.3,1.1,0.5c0.1,0.1,0.2,0,0.3,0l0.8-1.4c-0.5-0.3-1-0.6-1.6-0.8
		C425.1,25.1,424.5,25,424,24.9C424,24.9,424,24.9,424,24.9z M415.5,33.8c0.1,0.6,0.3,1.2,0.5,1.7l1.5-0.6c0.1-0.1,0.1-0.2,0.1-0.3
		c-0.1-0.4-0.2-0.8-0.3-1.2c-0.1-0.4-0.1-0.8-0.1-1.2c0-0.1-0.1-0.2-0.2-0.3h-1.6C415.4,32.6,415.4,33.2,415.5,33.8
		C415.5,33.8,415.5,33.8,415.5,33.8z M430.1,29.4l-1.5,0.7c-0.1,0.1-0.1,0.2-0.1,0.3c0.1,0.4,0.2,0.8,0.3,1.2
		c0.1,0.4,0.1,0.8,0.1,1.2c0,0.1,0.1,0.2,0.2,0.3l1.6-0.1c0-0.6,0-1.2-0.1-1.8C430.5,30.5,430.3,29.9,430.1,29.4
		C430.1,29.4,430.1,29.4,430.1,29.4z M427.6,28.9c0.1,0.2,0.4,0.2,0.6,0.1s0.2-0.4,0.1-0.6l0,0c0,0,0.1,0,0.1-0.1
		c0.2-0.1,0.2-0.4,0.1-0.6s-0.4-0.2-0.6-0.1l-0.1,0.1l0,0c-0.1-0.2-0.4-0.2-0.6-0.1s-0.2,0.4-0.1,0.6c0.1,0.1,0.3,0.2,0.4,0.2l0,0
		c0,0-0.1,0-0.1,0.1c-0.3,0.1-0.6,0-0.8-0.2l0.4,0.6l0.4,0.6c-0.2-0.3-0.2-0.6,0-0.8l0.1-0.1l0,0C427.5,28.6,427.5,28.8,427.6,28.9z
		 M417.6,30.9c0.2-0.1,0.5-0.2,0.6-0.2c-0.1-0.1-0.2-0.3-0.4-0.6c-0.1-0.3-0.2-0.5-0.3-0.8c-0.2,0.1-0.3,0.2-0.6,0.3
		c-0.3,0.1-0.6,0.2-0.8,0.2c0.1,0.1,0.3,0.4,0.4,0.7c0.1,0.2,0.2,0.5,0.2,0.6C417,31.2,417.3,31,417.6,30.9L417.6,30.9z M428.5,35.4
		c0.2,0,0.3-0.1,0.5-0.2c0.4-0.2,0.7-0.3,0.7-0.3c0-0.1-0.2-0.3-0.4-0.7c-0.1-0.2-0.1-0.3-0.3-0.5c-0.1-0.1-0.2-0.2-0.4-0.2
		s-0.4,0.1-0.5,0.3s0.1,0.5,0.2,0.6c-0.1,0-0.1-0.1-0.2-0.1c-0.3-0.2-0.4-0.5-0.3-0.8l-0.3,0.7l-0.3,0.7c0.1-0.3,0.5-0.5,0.8-0.4
		h0.2c-0.1,0-0.4,0.1-0.5,0.3s0,0.4,0.2,0.5C428.2,35.4,428.3,35.4,428.5,35.4L428.5,35.4z M417.3,36.1c-0.1,0.2-0.1,0.4,0,0.6
		c0.2,0.2,0.6,0.1,0.7,0l0,0c0,0.1-0.3,0.5-0.1,0.7c0.1,0.2,0.4,0.2,0.6,0.1c0.1-0.1,0.2-0.2,0.3-0.3c0.1-0.2,0.1-0.4,0.1-0.6
		c0-0.5,0.1-0.8,0.1-0.8h-0.8c-0.2,0-0.4-0.1-0.6,0S417.3,36,417.3,36.1L417.3,36.1z M424.8,39c0.1-0.3,0-0.6-0.3-0.7
		s-0.6,0-0.7,0.3s0,0.6,0.3,0.7C424.4,39.4,424.7,39.3,424.8,39z M422.7,26.6c0.1-0.3,0-0.6-0.3-0.7s-0.6,0-0.7,0.3s0,0.6,0.3,0.7
		C422.2,27,422.6,26.9,422.7,26.6z"/>
	<path class="st1" d="M428.1,38.5c-3.3,2.7-8.1,2.3-10.9-1c-2.7-3.3-2.3-8.1,1-10.9c3.3-2.7,8.1-2.3,10.9,1
		C431.8,30.9,431.4,35.7,428.1,38.5L428.1,38.5z"/>
</g>
<g>
	<path class="st4" d="M73.9,55c1.4,4,1.3,8.6-0.7,12.9s-5.5,7.2-9.5,8.6c-4,1.4-8.6,1.3-12.8-0.7c-4.2-2-7.2-5.5-8.6-9.5
		c-1.5-4-1.3-8.6,0.7-12.8c2-4.2,5.5-7.2,9.6-8.6c4-1.5,8.6-1.3,12.8,0.7C69.5,47.4,72.5,50.9,73.9,55C73.9,55,73.9,55,73.9,55z
		 M69.8,52.5c-2.2-3.2-5.6-5.2-9.1-5.9c-3.6-0.7-7.4,0-10.7,2.3c-3.2,2.2-5.2,5.6-5.9,9.1c-0.7,3.6,0,7.4,2.3,10.7
		c2.2,3.2,5.6,5.2,9.1,5.9c3.6,0.7,7.4,0,10.7-2.3c3.2-2.2,5.2-5.6,5.9-9.1C72.7,59.5,72,55.7,69.8,52.5
		C69.8,52.5,69.8,52.5,69.8,52.5z M81.3,44.5C90.2,57.4,87,75,74.1,83.9c-12.8,8.9-30.5,5.7-39.3-7.2c-8.9-12.8-5.6-30.5,7.3-39.3
		C54.9,28.4,72.5,31.7,81.3,44.5C81.3,44.5,81.3,44.5,81.3,44.5z M81.2,44.6c-1.2-1.9-2.8-3.5-4.3-4.9l-4.2,4.1
		c-0.2,0.4-0.2,0.8,0.1,1.2c1.1,1,2,2.1,2.9,3.4c0.8,1.2,1.6,2.5,2.1,3.9c0.2,0.4,0.6,0.7,1.1,0.5l5.4-2.4
		C83.5,48.3,82.5,46.4,81.2,44.6L81.2,44.6L81.2,44.6z M39.2,81.3l4.4-3.9c0.2-0.4,0.2-0.8-0.1-1.2c-1-1-2-2.1-2.9-3.4
		S39,70.3,38.4,69c-0.2-0.4-0.6-0.7-1-0.5l-5.5,2.3c0.7,2,1.7,4,3,5.8C36.1,78.3,37.6,79.9,39.2,81.3C39.2,81.3,39.2,81.3,39.2,81.3
		z M83.5,72.6c1-2,1.6-4.1,2.1-6.2l-5.6-1.5c-0.4,0-0.8,0.3-1,0.7c-0.4,1.4-0.8,2.8-1.5,4.2c-0.7,1.4-1.4,2.6-2.3,3.8
		c-0.3,0.4-0.2,0.8,0,1.2l4.8,3.4C81.3,76.5,82.5,74.7,83.5,72.6L83.5,72.6L83.5,72.6z M30.6,54.9l5.6,1.3c0.4,0,0.8-0.3,1-0.7
		c0.4-1.4,0.8-2.8,1.5-4.2s1.4-2.6,2.3-3.8c0.3-0.4,0.2-0.8,0-1.2l-4.8-3.2c-1.4,1.7-2.5,3.5-3.5,5.5C31.7,50.7,31,52.8,30.6,54.9
		L30.6,54.9L30.6,54.9z M60.3,88.7c2.2-0.2,4.4-0.7,6.4-1.3l-1.6-5.7c-0.2-0.4-0.7-0.6-1.1-0.5c-1.4,0.4-2.9,0.7-4.4,0.8
		c-1.5,0.1-3,0.1-4.4-0.1c-0.4,0-0.8,0.2-1,0.7l-0.5,5.9C55.9,88.8,58.1,88.8,60.3,88.7L60.3,88.7L60.3,88.7z M49,34l2.1,5.6
		c0.2,0.4,0.7,0.6,1.1,0.5c1.4-0.4,2.9-0.7,4.4-0.8s3-0.1,4.4,0.1c0.4,0,0.8-0.2,1-0.7l0.2-5.8c-2.1-0.4-4.3-0.5-6.5-0.3
		C53.4,32.8,51,33.3,49,34L49,34L49,34z M46.5,42.9c0.7-0.4,1-1.3,0.5-2.1c-0.4-0.7-1.3-1-2.1-0.5c0,0-0.1,0.1-0.2,0.1
		c0-0.2-0.1-0.3-0.2-0.4c-0.4-0.7-1.3-1-2.1-0.5c-0.7,0.4-1,1.3-0.5,2.1c0.1,0.1,0.2,0.2,0.3,0.4c0,0-0.1,0-0.1,0
		c-0.7,0.4-1,1.3-0.5,2.1c0.4,0.7,1.3,1,2.1,0.5c0.5-0.3,0.8-0.9,0.7-1.5h0c0.1,0.2,0.2,0.3,0.2,0.4c0.3,1-0.1,2.1-1.1,2.8l2.2-1.2
		l2.2-1.2c-1,0.5-2.2,0.4-2.9-0.4c-0.1-0.1-0.2-0.2-0.2-0.4c0,0,0,0,0.1,0C45.3,43.2,45.9,43.2,46.5,42.9L46.5,42.9z M50.5,80.2
		c-0.3-0.9-0.4-1.7-0.5-2.4c-0.6,0.4-1.3,0.8-2.1,1.1c-1,0.4-2,0.7-2.9,0.8c0.4,0.6,0.8,1.3,1.1,2.2c0.4,1.2,0.6,2.1,0.6,2.9
		c0.6-0.4,1.5-1,2.6-1.4c0.9-0.3,1.7-0.5,2.4-0.6C51.3,82.2,50.9,81.3,50.5,80.2L50.5,80.2z M70.3,41.9c0-0.7-0.2-1.3-0.5-1.9
		c-0.6-1.5-0.8-2.5-0.8-2.8c-0.2,0.2-1.2,0.7-2.8,1.1c-0.7,0.2-1.3,0.4-1.8,0.8c-0.4,0.3-0.7,0.8-0.7,1.2c-0.1,0.7,0.2,1.5,0.9,1.8
		c0.8,0.4,1.7-0.3,2.1-0.7c-0.1,0.2-0.2,0.4-0.3,0.6c-0.7,0.9-2,1.3-3.1,0.8l2.4,1.2l2.4,1.2c-1.1-0.5-1.6-1.9-1.4-2.9
		c0-0.2,0.1-0.4,0.2-0.5c0,0.5,0,1.6,0.8,2c0.7,0.3,1.5,0,2-0.4C70.1,42.9,70.3,42.3,70.3,41.9L70.3,41.9z M69.3,83.1
		c0.6,0.4,1.5,0.5,2.1,0.1c0.9-0.7,0.4-2.3,0.4-2.5c0-0.1,0-0.1-0.1-0.2c0,0,0.1,0.1,0.2,0.1c0.2,0.1,1.6,1.1,2.5,0.4
		c0.6-0.4,0.8-1.3,0.6-2c-0.2-0.5-0.5-0.9-0.9-1.1c-0.7-0.4-1.3-0.4-2-0.5c-1.7-0.2-2.7-0.5-3-0.7c0,0.3,0,1.4-0.3,3
		c-0.2,0.7-0.3,1.3-0.2,2.1C68.6,82.3,68.9,82.8,69.3,83.1z M82.3,56.4c-1-0.5-2.3,0-2.8,1s0,2.3,1,2.8s2.3,0,2.8-1
		C83.8,58.1,83.3,56.9,82.3,56.4z M36.4,60.2c-1-0.5-2.3,0-2.8,1s0,2.3,1,2.8s2.3,0,2.8-1S37.5,60.7,36.4,60.2z"/>
	<path class="st5" d="M81.5,44.4c8.9,12.8,5.7,30.5-7.2,39.3c-12.8,8.9-30.5,5.7-39.3-7.2C26,63.6,29.3,46,42.2,37.1
		S72.7,31.5,81.5,44.4C81.5,44.4,81.5,44.4,81.5,44.4z"/>
</g>
<g>
	<path class="st0" d="M174.6,44.3c-0.6,0.5-1.3,0.7-2.1,0.6c-0.8-0.1-1.5-0.5-1.9-1.1c-0.5-0.6-0.7-1.3-0.6-2.1
		c0.1-0.8,0.5-1.5,1.1-1.9c0.6-0.5,1.3-0.7,2.1-0.6c0.8,0.1,1.5,0.5,1.9,1.1c0.5,0.6,0.7,1.3,0.6,2.1
		C175.6,43.2,175.2,43.9,174.6,44.3L174.6,44.3z M174.8,43.5c0.4-0.5,0.5-1.2,0.5-1.8c-0.1-0.6-0.4-1.2-0.9-1.6
		c-0.5-0.4-1.2-0.5-1.8-0.5c-0.6,0.1-1.2,0.4-1.6,0.9c-0.4,0.5-0.5,1.2-0.5,1.8c0.1,0.6,0.4,1.2,0.9,1.6c0.5,0.4,1.2,0.5,1.8,0.5
		S174.4,44.1,174.8,43.5L174.8,43.5z M176.7,45c-1.6,2.1-4.6,2.6-6.7,1c-2.1-1.6-2.6-4.6-1-6.7c1.6-2.1,4.6-2.6,6.7-1
		C177.8,39.8,178.3,42.9,176.7,45L176.7,45z M176.7,45c0.2-0.3,0.4-0.6,0.5-1l-0.9-0.5c-0.1,0-0.1,0-0.2,0.1
		c-0.1,0.2-0.2,0.4-0.4,0.6c-0.2,0.2-0.3,0.4-0.5,0.6c-0.1,0.1-0.1,0.1,0,0.2l0.7,0.7C176.2,45.5,176.4,45.3,176.7,45L176.7,45
		L176.7,45z M168.5,40.2l0.9,0.5c0.1,0,0.1,0,0.2-0.1c0.1-0.2,0.2-0.4,0.4-0.6c0.2-0.2,0.3-0.4,0.5-0.6c0.1-0.1,0.1-0.1,0-0.2
		l-0.7-0.8c-0.3,0.2-0.5,0.5-0.8,0.8C168.8,39.5,168.6,39.8,168.5,40.2L168.5,40.2L168.5,40.2z M172.3,46.8h1.1l-0.1-1
		c0-0.1-0.1-0.1-0.2-0.1h-0.8c-0.3,0-0.5-0.1-0.7-0.2c-0.1,0-0.1,0-0.2,0.1l-0.3,0.9C171.5,46.7,171.9,46.8,172.3,46.8L172.3,46.8z
		 M172.3,37.4l0.1,1c0,0.1,0.1,0.1,0.2,0.1h0.8c0.3,0,0.5,0.1,0.7,0.2c0.1,0,0.1,0,0.2-0.1l0.3-0.9c-0.3-0.1-0.7-0.2-1.1-0.3
		C173,37.3,172.6,37.3,172.3,37.4L172.3,37.4z M168.4,44c0.1,0.3,0.3,0.7,0.6,1l0.8-0.6c0.1-0.1,0.1-0.1,0-0.2
		c-0.1-0.2-0.3-0.4-0.4-0.7c-0.1-0.2-0.2-0.5-0.2-0.7c0-0.1-0.1-0.1-0.2-0.1l-1,0.2C168.2,43.3,168.3,43.6,168.4,44L168.4,44
		L168.4,44z M176.6,39.2l-0.8,0.6c-0.1,0.1-0.1,0.1,0,0.2c0.1,0.2,0.3,0.4,0.4,0.7c0.1,0.2,0.2,0.5,0.2,0.7c0,0.1,0.1,0.1,0.2,0.1
		l0.9-0.3c-0.1-0.4-0.2-0.7-0.3-1.1C177.1,39.8,176.8,39.5,176.6,39.2L176.6,39.2L176.6,39.2z M175,39.3c0.1,0.1,0.3,0.1,0.4,0
		c0.1-0.1,0.1-0.3,0-0.4l0,0l0.1-0.1c0.1-0.1,0.1-0.3,0-0.4c-0.1-0.1-0.3-0.1-0.4,0v0.1l0,0c-0.1-0.1-0.3-0.1-0.4,0
		c-0.1,0.1-0.1,0.3,0,0.4c0.1,0.1,0.2,0.1,0.3,0l0,0l-0.1,0.1c-0.1,0.1-0.3,0.1-0.5,0l0.3,0.3l0.3,0.3c-0.1-0.1-0.2-0.3-0.1-0.5V39
		l0,0C174.9,39.1,175,39.2,175,39.3L175,39.3z M169.3,41.9c0.1-0.1,0.3-0.2,0.4-0.2c-0.1-0.1-0.2-0.2-0.3-0.3s-0.2-0.3-0.3-0.4
		c-0.1,0.1-0.2,0.2-0.3,0.3c-0.2,0.1-0.3,0.2-0.4,0.2c0.1,0.1,0.2,0.2,0.4,0.3c0.1,0.1,0.2,0.3,0.2,0.4
		C169,42.2,169.1,42.1,169.3,41.9L169.3,41.9z M176.5,43.1c0.1,0,0.2-0.1,0.3-0.2c0.2-0.2,0.4-0.3,0.4-0.3s-0.2-0.2-0.3-0.4
		c-0.1-0.1-0.1-0.2-0.2-0.2s-0.2-0.1-0.2,0c-0.1,0-0.2,0.1-0.2,0.2s0.1,0.3,0.2,0.3h-0.1c-0.2-0.1-0.3-0.2-0.3-0.5l-0.1,0.5
		l-0.1,0.5c0-0.2,0.2-0.4,0.4-0.4h0.1c-0.1,0-0.3,0.1-0.3,0.2s0.1,0.2,0.2,0.3C176.3,43.1,176.4,43.1,176.5,43.1L176.5,43.1z
		 M169.8,45.1c0,0.1,0,0.3,0.1,0.3c0.2,0.1,0.4-0.1,0.4-0.1l0,0c0,0-0.1,0.3,0.1,0.4c0.1,0.1,0.3,0.1,0.4,0c0.1-0.1,0.1-0.1,0.1-0.2
		v-0.4c-0.1-0.3-0.1-0.5-0.1-0.5s-0.2,0.1-0.5,0.1c-0.1,0-0.2,0-0.3,0.1C169.9,45,169.8,45,169.8,45.1z M174.8,45.8
		c0-0.2-0.1-0.4-0.3-0.4s-0.4,0.1-0.4,0.3s0.1,0.4,0.3,0.4S174.8,46,174.8,45.8z M171.7,38.6c0-0.2-0.1-0.4-0.3-0.4
		s-0.4,0.1-0.4,0.3s0.1,0.4,0.3,0.4S171.7,38.8,171.7,38.6z"/>
	<path class="st6" d="M176.7,45c-1.6,2.1-4.6,2.6-6.7,1c-2.1-1.6-2.6-4.6-1-6.7c1.6-2.1,4.6-2.6,6.7-1
		C177.9,39.9,178.3,42.9,176.7,45L176.7,45z"/>
</g>
</svg>
