<?xml version="1.0" encoding="utf-8"?>
<!-- Generator: Adobe Illustrator 27.5.0, SVG Export Plug-In . SVG Version: 6.00 Build 0)  -->
<svg version="1.1" id="Layer_1" xmlns="http://www.w3.org/2000/svg" xmlns:xlink="http://www.w3.org/1999/xlink" x="0px" y="0px"
	 viewBox="0 0 500 74.2" style="enable-background:new 0 0 500 74.2;" xml:space="preserve">
<style type="text/css">
	.st0{opacity:0.49;}
	.st1{fill:#FFFFFF;}
	.st2{fill-rule:evenodd;clip-rule:evenodd;fill:#FFFFFF;}
	.st3{fill:none;stroke:#FFFFFF;stroke-width:0.25;stroke-miterlimit:10;}
	.st4{fill-rule:evenodd;clip-rule:evenodd;fill:#003762;}
	.st5{fill:#003762;}
</style>
<g class="st0">
	<g>
		<path class="st1" d="M87.1,65.3C124.5,45.9,155,42,175.3,41.7c58.2-0.6,80.3,28.7,138,18.2c14.9-2.7,27.4-7.2,50.5-7.4
			c20.4-0.1,40.6,3.1,59.9,9.4v11.2H87.1V65.3z"/>
	</g>
	<g>
		<path class="st2" d="M264.4,52.8c0.6,1.7,0.6,3.7-0.3,5.6c-0.9,1.8-2.4,3.1-4.1,3.7c-1.7,0.6-3.7,0.6-5.6-0.3
			c-1.8-0.9-3.1-2.4-3.7-4.1c-0.6-1.7-0.6-3.7,0.3-5.6c0.9-1.8,2.4-3.1,4.1-3.7c1.7-0.6,3.7-0.6,5.6,0.3
			C262.4,49.5,263.7,51,264.4,52.8L264.4,52.8z M262.6,51.7c-1-1.4-2.4-2.3-4-2.6s-3.2,0-4.6,1c-1.4,1-2.3,2.4-2.6,4s0,3.2,1,4.6
			c1,1.4,2.4,2.3,4,2.6s3.2,0,4.6-1s2.3-2.4,2.6-4C263.9,54.8,263.5,53.1,262.6,51.7L262.6,51.7L262.6,51.7z M267.6,48.3
			c3.8,5.6,2.4,13.2-3.1,17c-5.6,3.8-13.2,2.4-17-3.1c-3.8-5.6-2.4-13.2,3.1-17C256.1,41.3,263.8,42.7,267.6,48.3L267.6,48.3z
			 M267.5,48.3c-0.5-0.8-1.2-1.5-1.9-2.1l-1.8,1.8c-0.1,0.2-0.1,0.4,0.1,0.5c0.5,0.4,0.9,0.9,1.2,1.5c0.4,0.5,0.7,1.1,0.9,1.7
			c0.1,0.2,0.3,0.3,0.5,0.2l2.3-1C268.5,49.9,268.1,49.1,267.5,48.3L267.5,48.3z M249.3,64.2l1.9-1.7c0.1-0.2,0.1-0.4-0.1-0.5
			c-0.5-0.4-0.9-0.9-1.2-1.5c-0.4-0.5-0.7-1.1-0.9-1.7c-0.1-0.2-0.3-0.3-0.5-0.2l-2.4,1c0.3,0.9,0.8,1.7,1.3,2.5
			C248,62.9,248.6,63.6,249.3,64.2L249.3,64.2z M268.5,60.5c0.4-0.9,0.7-1.8,0.9-2.7l-2.4-0.7c-0.2,0-0.4,0.1-0.4,0.3
			c-0.2,0.6-0.4,1.2-0.6,1.8c-0.3,0.6-0.6,1.1-1,1.6c-0.1,0.2-0.1,0.4,0,0.5l2.1,1.5C267.6,62.1,268.1,61.3,268.5,60.5L268.5,60.5z
			 M245.6,52.8l2.4,0.6c0.2,0,0.4-0.1,0.4-0.3c0.2-0.6,0.4-1.2,0.6-1.8c0.3-0.6,0.6-1.1,1-1.6c0.1-0.2,0.1-0.4,0-0.5l-2.1-1.4
			c-0.6,0.7-1.1,1.5-1.5,2.4C246.1,51,245.8,51.9,245.6,52.8L245.6,52.8z M258.5,67.4c1-0.1,1.9-0.3,2.8-0.6l-0.7-2.5
			c-0.1-0.2-0.3-0.3-0.5-0.2c-0.6,0.2-1.2,0.3-1.9,0.3s-1.3,0-1.9,0c-0.2,0-0.4,0.1-0.4,0.3l-0.2,2.6
			C256.6,67.4,257.5,67.5,258.5,67.4L258.5,67.4z M253.6,43.7l0.9,2.4c0.1,0.2,0.3,0.3,0.5,0.2c0.6-0.2,1.2-0.3,1.9-0.3
			c0.6-0.1,1.3,0,1.9,0c0.2,0,0.4-0.1,0.4-0.3l0.1-2.5c-0.9-0.2-1.9-0.2-2.8-0.1C255.5,43.2,254.4,43.4,253.6,43.7L253.6,43.7z
			 M252.5,47.6c0.3-0.2,0.4-0.6,0.2-0.9c-0.2-0.3-0.6-0.4-0.9-0.2c0,0-0.1,0-0.1,0.1c0-0.1,0-0.1-0.1-0.2c-0.2-0.3-0.6-0.4-0.9-0.2
			c-0.3,0.2-0.4,0.6-0.2,0.9c0,0.1,0.1,0.1,0.1,0.2l0,0c-0.3,0.2-0.4,0.6-0.2,0.9c0.2,0.3,0.6,0.4,0.9,0.2c0.2-0.1,0.3-0.4,0.3-0.6
			l0,0c0,0.1,0.1,0.1,0.1,0.2c0.1,0.4-0.1,0.9-0.5,1.2l0.9-0.5l0.9-0.5c-0.5,0.2-1,0.2-1.3-0.2c0,0-0.1-0.1-0.1-0.2l0,0
			C252,47.7,252.3,47.7,252.5,47.6z M254.2,63.7c-0.1-0.4-0.2-0.7-0.2-1c-0.2,0.2-0.6,0.3-0.9,0.5c-0.5,0.2-0.9,0.3-1.2,0.3
			c0.2,0.3,0.3,0.6,0.5,1c0.2,0.5,0.2,0.9,0.2,1.2c0.2-0.2,0.6-0.4,1.1-0.6c0.4-0.1,0.8-0.2,1-0.2C254.6,64.6,254.4,64.2,254.2,63.7
			z M262.8,47.1c0-0.3-0.1-0.6-0.2-0.8c-0.3-0.6-0.3-1.1-0.4-1.2c-0.1,0.1-0.5,0.3-1.2,0.5c-0.3,0.1-0.6,0.2-0.8,0.3
			c-0.2,0.1-0.3,0.3-0.3,0.5c0,0.3,0.1,0.6,0.4,0.8s0.7-0.1,0.9-0.3c0,0.1-0.1,0.2-0.1,0.2c-0.3,0.4-0.9,0.6-1.3,0.3l1,0.5l1,0.5
			c-0.5-0.2-0.7-0.8-0.6-1.3c0-0.1,0.1-0.2,0.1-0.2c0,0.2,0,0.7,0.4,0.9c0.3,0.1,0.6,0,0.9-0.2C262.7,47.6,262.8,47.3,262.8,47.1z
			 M262.4,65c0.2,0.2,0.6,0.2,0.9,0c0.4-0.3,0.2-1,0.2-1.1v-0.1c0,0,0,0,0.1,0.1s0.7,0.5,1.1,0.2c0.3-0.2,0.3-0.6,0.2-0.9
			c-0.1-0.2-0.2-0.4-0.4-0.5c-0.3-0.2-0.6-0.2-0.9-0.2c-0.7-0.1-1.2-0.2-1.3-0.3c0,0.1,0,0.6-0.1,1.3c-0.1,0.3-0.1,0.6-0.1,0.9
			C262.1,64.6,262.2,64.8,262.4,65z M268,53.4c-0.4-0.2-1,0-1.2,0.4s0,1,0.4,1.2s1,0,1.2-0.4S268.4,53.6,268,53.4z M248.1,55.1
			c-0.4-0.2-1,0-1.2,0.4s0,1,0.4,1.2s1,0,1.2-0.4C248.8,55.8,248.6,55.3,248.1,55.1z"/>
		<path class="st3" d="M267.7,48.2c3.8,5.6,2.4,13.2-3.1,17c-5.6,3.8-13.2,2.4-17-3.1c-3.8-5.6-2.4-13.2,3.1-17
			C256.2,41.2,263.8,42.6,267.7,48.2L267.7,48.2z"/>
	</g>
	<g>
		<path class="st2" d="M203.8,32.4c-0.5,1-1.3,1.8-2.4,2.1c-1.1,0.4-2.2,0.3-3.2-0.2s-1.8-1.3-2.1-2.4c-0.4-1.1-0.3-2.2,0.2-3.2
			s1.3-1.8,2.4-2.1c1.1-0.4,2.2-0.3,3.2,0.2s1.8,1.3,2.1,2.4C204.4,30.3,204.3,31.5,203.8,32.4L203.8,32.4z M203.5,31.3
			c0.2-1,0-1.9-0.5-2.7c-0.5-0.8-1.3-1.3-2.3-1.5s-1.9,0-2.7,0.5s-1.3,1.3-1.5,2.3s0,1.9,0.5,2.7c0.5,0.8,1.3,1.3,2.3,1.5
			s1.9,0,2.7-0.5C202.8,33,203.3,32.2,203.5,31.3L203.5,31.3L203.5,31.3z M207,31.9c-0.7,3.8-4.5,6.3-8.3,5.6s-6.3-4.5-5.6-8.3
			s4.5-6.3,8.3-5.6C205.2,24.4,207.7,28.1,207,31.9L207,31.9z M206.9,31.9c0.1-0.5,0.1-1.1,0.1-1.6h-1.5c-0.1,0-0.2,0.1-0.2,0.2
			c0,0.4,0,0.7-0.1,1.1s-0.2,0.7-0.3,1.1c0,0.1,0,0.2,0.1,0.3l1.4,0.6C206.7,33,206.8,32.5,206.9,31.9L206.9,31.9z M193,30.8
			l1.5,0.1c0.1,0,0.2-0.1,0.2-0.2c0-0.4,0-0.7,0.1-1.1s0.2-0.7,0.3-1.1c0-0.1,0-0.2-0.1-0.3l-1.4-0.6c-0.2,0.5-0.4,1-0.5,1.6
			S193,30.3,193,30.8L193,30.8z M202.3,37.2c0.5-0.2,1-0.4,1.5-0.7l-0.7-1.3c-0.1-0.1-0.2-0.1-0.3-0.1c-0.3,0.2-0.6,0.3-1,0.5
			c-0.4,0.1-0.7,0.2-1.1,0.3c-0.1,0-0.2,0.1-0.2,0.2l0.2,1.4C201.2,37.5,201.8,37.4,202.3,37.2L202.3,37.2z M196.2,24.7l0.7,1.2
			c0.1,0.1,0.2,0.1,0.3,0.1c0.3-0.2,0.6-0.3,1-0.5s0.7-0.2,1.1-0.3c0.1,0,0.2-0.1,0.2-0.2l-0.3-1.4c-0.5,0-1.1,0.2-1.6,0.3
			C197.2,24.1,196.7,24.4,196.2,24.7L196.2,24.7z M195.4,35.9c0.4,0.4,0.9,0.7,1.4,0.9l0.8-1.3c0-0.1,0-0.2-0.1-0.3
			c-0.3-0.2-0.6-0.4-0.9-0.6c-0.3-0.2-0.5-0.5-0.8-0.8c-0.1-0.1-0.2-0.1-0.3-0.1l-1.1,0.9C194.6,35.1,195,35.5,195.4,35.9
			L195.4,35.9z M203.2,24.3l-0.6,1.3c0,0.1,0,0.2,0.1,0.3c0.3,0.2,0.6,0.4,0.9,0.6c0.3,0.2,0.5,0.5,0.8,0.8c0.1,0.1,0.2,0.1,0.3,0.1
			l1.1-1c-0.3-0.4-0.7-0.9-1.1-1.2C204.2,24.9,203.6,24.5,203.2,24.3L203.2,24.3z M201.1,25.4c0.2,0.1,0.4-0.1,0.5-0.3
			c0.1-0.2-0.1-0.4-0.3-0.5l0,0c0,0,0-0.1,0.1-0.1c0.1-0.2-0.1-0.4-0.3-0.5s-0.4,0.1-0.5,0.3v0.1l0,0c-0.2-0.1-0.4,0.1-0.5,0.3
			c-0.1,0.2,0.1,0.4,0.3,0.5c0.1,0,0.3,0,0.4-0.1l0,0v0.1c-0.1,0.2-0.4,0.3-0.7,0.3l0.6,0.2l0.6,0.2c-0.3-0.1-0.5-0.3-0.4-0.6v-0.1
			l0,0C200.9,25.3,201,25.4,201.1,25.4z M195.2,32.7c0.1-0.2,0.2-0.4,0.3-0.5c-0.2,0-0.4-0.1-0.6-0.2c-0.3-0.1-0.5-0.2-0.6-0.4
			c0,0.2-0.1,0.4-0.2,0.6c-0.1,0.3-0.3,0.5-0.4,0.6c0.2,0,0.4,0.1,0.7,0.2c0.2,0.1,0.4,0.2,0.5,0.3C194.9,33.2,195,32.9,195.2,32.7z
			 M205.5,29.5c0.1-0.1,0.2-0.3,0.3-0.4c0.2-0.4,0.3-0.6,0.4-0.6c-0.1,0-0.3-0.1-0.7-0.3c-0.1-0.1-0.3-0.2-0.5-0.2
			c-0.1,0-0.3,0-0.3,0.1c-0.1,0.1-0.2,0.3-0.2,0.5c0.1,0.2,0.3,0.3,0.5,0.3c-0.1,0-0.1,0-0.2,0c-0.3,0-0.6-0.1-0.7-0.4l0.2,0.6
			l0.2,0.6c-0.1-0.3,0-0.6,0.3-0.8c0,0,0.1,0,0.1-0.1c-0.1,0.1-0.3,0.3-0.2,0.5s0.3,0.3,0.4,0.3C205.3,29.6,205.4,29.6,205.5,29.5z
			 M197.9,36.5c0,0.2,0.2,0.4,0.4,0.4c0.3,0,0.5-0.3,0.5-0.4l0,0c0,0,0,0,0,0.1s0.1,0.5,0.4,0.5c0.2,0,0.4-0.1,0.5-0.3
			c0.1-0.1,0.1-0.2,0-0.4c0-0.2-0.2-0.3-0.3-0.4c-0.3-0.3-0.4-0.6-0.4-0.7c-0.1,0.1-0.3,0.2-0.6,0.5c-0.2,0.1-0.3,0.2-0.4,0.3
			C198,36.3,197.9,36.4,197.9,36.5z M205,34.2c-0.1-0.3-0.4-0.4-0.7-0.3c-0.3,0.1-0.4,0.4-0.3,0.7c0.1,0.3,0.4,0.4,0.7,0.3
			C205,34.7,205.1,34.5,205,34.2z M196.3,26.6c-0.1-0.3-0.4-0.4-0.7-0.3s-0.4,0.4-0.3,0.7c0.1,0.3,0.4,0.4,0.7,0.3
			C196.2,27.2,196.4,26.9,196.3,26.6z"/>
		<path class="st3" d="M207,31.9c-0.7,3.8-4.5,6.3-8.3,5.6s-6.3-4.5-5.6-8.3s4.5-6.3,8.3-5.6S207.8,28.1,207,31.9L207,31.9z"/>
	</g>
	<g>
		<path class="st2" d="M247.5,31c-1.2,0.6-2.7,0.8-4.1,0.3c-1.4-0.5-2.5-1.5-3.1-2.7s-0.8-2.7-0.3-4.1s1.5-2.5,2.7-3.1
			s2.7-0.8,4.1-0.3c1.4,0.5,2.5,1.5,3.1,2.7s0.8,2.7,0.3,4.1C249.7,29.4,248.7,30.4,247.5,31L247.5,31z M248.1,29.7
			c0.9-0.8,1.4-2,1.5-3.1c0.1-1.2-0.3-2.3-1.1-3.3c-0.8-0.9-2-1.4-3.1-1.5c-1.2-0.1-2.3,0.3-3.3,1.1c-0.9,0.8-1.4,2-1.5,3.1
			c-0.1,1.2,0.3,2.3,1.1,3.3c0.8,0.9,2,1.4,3.1,1.5C246,30.9,247.2,30.5,248.1,29.7L248.1,29.7L248.1,29.7z M251.1,33
			c-3.7,3.3-9.4,3-12.7-0.8c-3.3-3.7-3-9.4,0.8-12.7c3.7-3.3,9.4-2.9,12.7,0.8C255.1,24,254.8,29.7,251.1,33L251.1,33z M251.1,33
			c0.5-0.5,1-1,1.4-1.5l-1.4-1.2c-0.1-0.1-0.3,0-0.4,0.1c-0.3,0.4-0.6,0.7-1,1s-0.7,0.6-1.1,0.8c-0.1,0.1-0.2,0.2-0.1,0.4l1,1.6
			C250,33.8,250.5,33.4,251.1,33L251.1,33z M237.9,21.1l1.4,1.2c0.1,0.1,0.3,0,0.4-0.1c0.3-0.4,0.6-0.7,1-1s0.7-0.6,1.1-0.8
			c0.1-0.1,0.2-0.2,0.1-0.4l-0.9-1.7c-0.6,0.3-1.2,0.7-1.7,1.2C238.7,20,238.3,20.6,237.9,21.1L237.9,21.1z M242.3,34.8
			c0.7,0.2,1.3,0.4,2,0.4l0.3-1.8c0-0.1-0.1-0.3-0.3-0.3c-0.5-0.1-0.9-0.2-1.4-0.3c-0.5-0.2-0.9-0.3-1.3-0.6c-0.1-0.1-0.3,0-0.4,0.1
			l-0.9,1.6C241,34.2,241.6,34.5,242.3,34.8L242.3,34.8z M245.9,17.4l-0.2,1.8c0,0.1,0.1,0.3,0.3,0.3c0.5,0.1,0.9,0.2,1.4,0.3
			s0.9,0.3,1.3,0.6c0.1,0.1,0.3,0,0.4-0.1l0.8-1.6c-0.6-0.4-1.2-0.7-1.9-0.9C247.2,17.6,246.5,17.5,245.9,17.4L245.9,17.4z
			 M236.4,28.1c0.1,0.7,0.4,1.3,0.7,2l1.7-0.7c0.1-0.1,0.2-0.2,0.1-0.4c-0.2-0.4-0.3-0.9-0.4-1.3c-0.1-0.5-0.1-0.9-0.1-1.4
			c0-0.1-0.1-0.3-0.2-0.3l-1.9,0.1C236.2,26.7,236.2,27.4,236.4,28.1L236.4,28.1z M253.2,22.4l-1.7,0.9c-0.1,0.1-0.2,0.2-0.1,0.4
			c0.2,0.4,0.3,0.9,0.4,1.3c0.1,0.5,0.1,0.9,0.1,1.4c0,0.1,0.1,0.3,0.2,0.3l1.8-0.2c0-0.7,0-1.4-0.2-2.1
			C253.7,23.7,253.5,23,253.2,22.4L253.2,22.4z M250.3,22c0.2,0.2,0.5,0.3,0.7,0.1c0.2-0.2,0.3-0.5,0.1-0.7l0,0c0,0,0.1,0,0.1-0.1
			c0.2-0.2,0.3-0.5,0.1-0.7s-0.5-0.3-0.7-0.1l-0.1,0.1l0,0c-0.2-0.2-0.5-0.3-0.7-0.1c-0.2,0.2-0.3,0.5-0.1,0.7
			c0.1,0.2,0.3,0.2,0.5,0.2l0,0l-0.1,0.1c-0.3,0.1-0.7,0-0.9-0.2l0.5,0.6l0.5,0.6c-0.2-0.3-0.2-0.7,0-0.9l0.1-0.1l0,0
			C250.1,21.6,250.1,21.8,250.3,22z M238.7,24.7c0.3-0.1,0.5-0.2,0.7-0.2c-0.1-0.2-0.3-0.4-0.4-0.6c-0.2-0.3-0.3-0.6-0.4-0.9
			c-0.2,0.1-0.4,0.3-0.7,0.4c-0.4,0.2-0.7,0.3-0.9,0.3c0.2,0.2,0.4,0.4,0.5,0.8c0.1,0.3,0.2,0.5,0.3,0.7
			C238.1,25,238.3,24.8,238.7,24.7z M251.5,29.4c0.2,0,0.4-0.1,0.6-0.2c0.4-0.2,0.8-0.4,0.9-0.4c-0.1-0.1-0.2-0.3-0.5-0.8
			c-0.1-0.2-0.2-0.4-0.3-0.5s-0.3-0.2-0.4-0.2c-0.2,0-0.5,0.1-0.5,0.3c-0.1,0.3,0.2,0.5,0.3,0.6c-0.1,0-0.1-0.1-0.2-0.1
			c-0.3-0.2-0.5-0.6-0.4-0.9l-0.3,0.8l-0.3,0.8c0.1-0.4,0.5-0.6,0.9-0.5c0.1,0,0.1,0,0.2,0c-0.2,0-0.5,0.1-0.6,0.3
			c-0.1,0.2,0,0.5,0.2,0.6C251.2,29.4,251.4,29.5,251.5,29.4z M238.5,30.7c-0.1,0.2-0.1,0.5,0.1,0.7c0.3,0.3,0.7,0.1,0.8,0
			c0,0,0,0,0.1,0c0,0,0,0,0,0.1s-0.3,0.5,0,0.8c0.2,0.2,0.5,0.2,0.7,0.1c0.1-0.1,0.3-0.2,0.3-0.3c0.1-0.2,0.1-0.4,0.1-0.7
			c0-0.5,0.1-0.9,0.1-1c-0.1,0-0.4,0.1-1,0c-0.2,0-0.4-0.1-0.7,0C238.7,30.4,238.6,30.5,238.5,30.7z M247.4,33.8
			c0.1-0.3-0.1-0.7-0.4-0.8s-0.7,0.1-0.8,0.4c-0.1,0.3,0.1,0.7,0.4,0.8C246.9,34.3,247.3,34.1,247.4,33.8z M244.4,19.5
			c0.1-0.3-0.1-0.7-0.4-0.8c-0.3-0.1-0.7,0.1-0.8,0.4s0.1,0.7,0.4,0.8C243.9,20,244.3,19.8,244.4,19.5z"/>
		<path class="st3" d="M251.1,33c-3.7,3.3-9.4,3-12.7-0.8c-3.3-3.7-3-9.4,0.8-12.7c3.7-3.3,9.4-3,12.7,0.8S254.9,29.8,251.1,33
			L251.1,33z"/>
	</g>
</g>
<path class="st4" d="M440.7,30.8c4.7-3.4,11.2-2.4,14.6,2.2c1.4,1.9,2.1,4.2,2,6.4c0.6-0.8,1.4-1.6,2.3-2.3
	c4.7-3.4,11.2-2.4,14.6,2.2c3.4,4.7,2,11.5-2.2,14.6s-9.3,2-12.9-0.6c0.3,0.4,1,1.5,1.4,2s0.8,1.2,1.3,1.6c0.4,0.5,0.9,0.8,1.4,1.2
	c0.5,0.3,1,0.6,1.5,0.9c0.5,0.2,1.1,0.4,1.7,0.6c0.6,0.2,1.2,0.4,1.9,0.6c0.7,0.2,1.4,0.3,1.8,0.3c0.5,0,0.7,0,0.9,0
	c0.1,0,0.1,0-1.7,1.3c-1.8,1.4-5.5,4.1-7.3,5.4c-1.8,1.4-1.8,1.4-1.8,1.1c0-0.2,0.1-0.7,0.2-1.5c0.1-0.7,0.2-1.7,0.2-2.7
	c0-0.9-0.1-1.7-0.3-2.5c-0.2-0.8-0.4-1.7-0.8-2.6c-0.4-0.9-1.1-2-1.8-2.8c-0.4-0.4-0.7-0.8-1.1-1.1c1.8,4.4,0.5,9.5-3.5,12.5
	c-4.7,3.4-11.2,2.4-14.6-2.2c-3.4-4.7-2.4-11.2,2.2-14.6c5.4-4,2.2,0.6-2.4-5.6C435,40.8,436,34.3,440.7,30.8L440.7,30.8z"/>
<path class="st5" d="M-7,61.4v18.7h514V32c-29-9.9-61.8-6.6-91.8,1.3c-33.8,8.9-69.3,26.5-103.6,33.7c-35.2,7.4-72,7-107.3-0.2
	c-24.8-5-48.8-13.3-73.7-17.9C84.5,40.4,36.9,44.7-7,61.4z"/>
</svg>
