<?xml version="1.0" encoding="UTF-8"?>
<svg id="Layer_1" xmlns="http://www.w3.org/2000/svg" version="1.1" viewBox="0 0 500 74.2">
  <!-- Generator: Adobe Illustrator 29.4.0, SVG Export Plug-In . SVG Version: 2.1.0 Build 152)  -->
  <defs>
    <style>
      .st0, .st1 {
        fill: #4195d1;
      }

      .st2, .st3 {
        fill: #003762;
      }

      .st1, .st3 {
        fill-rule: evenodd;
      }

      .st4 {
        stroke: #003762;
      }

      .st4, .st5, .st6 {
        fill: none;
        stroke-miterlimit: 10;
      }

      .st4, .st6 {
        stroke-width: .5px;
      }

      .st5 {
        stroke-width: .25px;
      }

      .st5, .st6 {
        stroke: #4195d1;
      }
    </style>
  </defs>
  <g>
    <path class="st1" d="M404.3,61c.2,2.7-.7,5.5-2.6,7.7s-4.6,3.4-7.3,3.6c-2.7.2-5.5-.7-7.7-2.6s-3.4-4.6-3.6-7.3.7-5.5,2.6-7.7,4.6-3.4,7.3-3.6c2.7-.2,5.5.7,7.7,2.6,2.2,1.9,3.4,4.6,3.6,7.3h0ZM402.3,58.8c-.8-2.4-2.5-4.2-4.5-5.2-2.1-1-4.5-1.3-6.9-.5s-4.2,2.5-5.2,4.5c-1,2.1-1.3,4.5-.5,6.9s2.5,4.2,4.5,5.2c2.1,1,4.5,1.3,6.9.5s4.2-2.5,5.2-4.5c1-2.1,1.2-4.5.5-6.9h0ZM410.7,56c3.2,9.4-1.9,19.5-11.2,22.7-9.4,3.2-19.5-1.9-22.7-11.2-3.2-9.4,1.9-19.5,11.2-22.7,9.4-3.2,19.5,1.8,22.7,11.2h0ZM410.6,56c-.5-1.3-1.1-2.6-1.8-3.7l-3.3,1.7c-.2.2-.3.5-.1.7.5.8.8,1.7,1.2,2.6.3.9.5,1.8.6,2.7,0,.3.3.5.5.5l3.7-.5c-.1-1.3-.3-2.7-.8-4h0ZM378.6,71l3.3-1.6c.2-.2.3-.5.1-.7-.5-.8-.8-1.7-1.2-2.6-.3-.9-.5-1.8-.6-2.7,0-.3-.3-.5-.5-.5l-3.8.4c.1,1.4.4,2.7.8,4.1.5,1.3,1.2,2.5,1.9,3.6h0ZM407.1,73.5c.9-1.1,1.7-2.2,2.3-3.4l-3.2-1.9c-.3-.1-.6,0-.7.3-.5.8-1,1.6-1.6,2.3-.6.7-1.3,1.4-2.1,1.9-.2.2-.3.5-.2.7l2.3,2.9c1.2-.9,2.3-1.8,3.2-2.8h0ZM378,53.5l3.2,1.8c.3.1.6,0,.7-.3.5-.8,1-1.6,1.6-2.3s1.3-1.4,2.1-1.9c.2-.2.3-.5.2-.7l-2.3-2.8c-1.1.8-2.2,1.7-3.1,2.7-1,1.1-1.8,2.3-2.4,3.5h0ZM390.2,79.2c1.4.3,2.8.4,4.1.3v-3.8c-.1-.3-.3-.5-.6-.5-.9,0-1.9-.1-2.8-.3-.9-.2-1.8-.5-2.7-.8-.3-.1-.6,0-.7.2l-1.3,3.5c1.3.7,2.6,1.1,4,1.4h0ZM392.8,43.9l.3,3.7c.1.3.3.5.6.5.9,0,1.9.1,2.8.3s1.8.5,2.7.8c.3.1.6,0,.7-.2l1.1-3.5c-1.2-.6-2.5-1-3.9-1.3s-2.9-.4-4.3-.3h0ZM389.7,48.9c.5-.1.8-.6.7-1.2-.1-.5-.6-.8-1.2-.7h-.1v-.3c-.1-.5-.6-.8-1.2-.7-.5.1-.8.6-.7,1.2,0,.1.1.2.1.3h-.1c-.5.1-.8.6-.7,1.2.1.5.6.8,1.2.7.4-.1.6-.4.7-.8h0v.3c0,.7-.4,1.2-1.1,1.5l1.7-.4,1.5-.4c-.7.1-1.4-.2-1.7-.8,0-.1-.1-.2-.1-.3h0c.3.4.6.5,1,.4ZM385.7,72.4c0-.6,0-1.1.1-1.5-.4.1-.9.2-1.5.3-.7.1-1.4.1-1.9,0,.1.4.2,1,.3,1.5.1.8,0,1.4-.1,1.9.4-.2,1-.3,1.8-.4.6,0,1.1,0,1.6.1-.2-.6-.3-1.2-.3-1.9ZM404.5,52.4c.1-.4.1-.8,0-1.3-.1-1-.1-1.7,0-1.9-.2,0-.8.2-1.9.2-.4,0-.8,0-1.2.2-.3.1-.5.4-.6.6-.2.4-.1,1,.2,1.3.4.4,1.1.1,1.4,0-.1.1-.2.2-.3.3-.6.4-1.4.5-2-.1l1.3,1.1,1.3,1.1c-.6-.5-.7-1.4-.3-2,0-.1.1-.2.2-.3-.1.3-.2,1,.2,1.4.3.3.9.3,1.3.1.1-.1.3-.4.4-.7ZM396.6,77.3c.3.4.8.6,1.3.4.7-.3.7-1.3.7-1.5v-.1s0,.1.1.1c.1.1.8.9,1.5.7.4-.1.7-.7.7-1.1,0-.3-.2-.6-.4-.9-.3-.3-.7-.5-1.1-.7-1-.4-1.6-.8-1.7-.9,0,.2-.2.9-.7,1.8-.2.4-.4.8-.5,1.2-.2.5-.1.8.1,1ZM409.2,63.4c-.5-.5-1.4-.4-1.8.1-.5.5-.4,1.4.1,1.8s1.4.4,1.8-.1c.5-.5.4-1.4-.1-1.8ZM380.6,57.7c-.5-.5-1.4-.4-1.8.1-.5.5-.4,1.4.1,1.8.5.5,1.4.4,1.8-.1.5-.5.4-1.3-.1-1.8Z"/>
    <path class="st6" d="M410.8,55.9c3.2,9.4-1.9,19.5-11.2,22.7-9.4,3.2-19.5-1.9-22.7-11.2-3.2-9.4,1.9-19.5,11.2-22.7,9.4-3.2,19.5,1.8,22.7,11.2h0Z"/>
  </g>
  <path class="st0" d="M196.9,58.4c37.4-19.4,67.9-23.3,88.2-23.6,58.2-.6,80.3,28.7,138,18.2,14.9-2.7,27.4-7.2,50.5-7.4,20.4-.1,40.6,3.1,59.9,9.4v18.2H196.9"/>
  <path class="st2" d="M-.8,67.7c55.7-13.9,101-16.7,131.3-16.8,86.7-.4,119.5,20.5,205.4,13,22.1-1.9,40.8-5.2,75.2-5.3,30.3-.1,60.4,2.2,89.2,6.7v13H-.7"/>
  <g>
    <path class="st1" d="M424.99,36.74c-1.1.5-2.3.6-3.5.1-1.2-.4-2.1-1.3-2.6-2.4s-.6-2.3-.1-3.5c.4-1.2,1.3-2.1,2.4-2.6s2.3-.6,3.5-.1c1.2.4,2.1,1.3,2.6,2.4s.6,2.3.1,3.5c-.4,1.2-1.3,2.1-2.4,2.6h0ZM425.59,35.54c.8-.7,1.3-1.6,1.4-2.6s-.2-2-.9-2.8c-.7-.8-1.6-1.3-2.6-1.4s-2,.2-2.8.9c-.8.7-1.3,1.6-1.4,2.6s.2,2,.9,2.8c.7.8,1.6,1.3,2.6,1.4.9.1,2-.2,2.8-.9h0ZM427.99,38.44c-3.3,2.7-8.1,2.3-10.9-1-2.7-3.3-2.3-8.1,1-10.9,3.3-2.7,8.1-2.3,10.9,1,2.8,3.3,2.3,8.2-1,10.9h0ZM427.99,38.44c.5-.4.9-.8,1.2-1.3l-1.2-1.1c-.1-.1-.2,0-.3.1-.3.3-.5.6-.9.9-.3.3-.7.5-1,.7-.1.1-.2.2-.1.3l.8,1.4c.5-.3,1-.6,1.5-1h0ZM416.99,27.94l1.2,1.1c.1.1.2,0,.3-.1.3-.3.5-.6.9-.9.3-.3.7-.5,1-.7.1-.1.2-.2.1-.3l-.7-1.4c-.5.3-1,.6-1.5,1-.6.4-1,.8-1.3,1.3h0ZM420.39,39.74c.6.2,1.2.3,1.7.4l.3-1.6c0-.1-.1-.2-.2-.2-.4-.1-.8-.2-1.2-.3s-.8-.3-1.1-.5c-.1-.1-.2,0-.3,0l-.8,1.4c.5.3,1.1.6,1.6.8h0ZM423.99,24.94l-.2,1.6c0,.1.1.2.2.2.4.1.8.2,1.2.3s.8.3,1.1.5c.1.1.2,0,.3,0l.8-1.4c-.5-.3-1-.6-1.6-.8-.7-.2-1.3-.3-1.8-.4h0ZM415.49,33.84c.1.6.3,1.2.5,1.7l1.5-.6c.1-.1.1-.2.1-.3-.1-.4-.2-.8-.3-1.2-.1-.4-.1-.8-.1-1.2,0-.1-.1-.2-.2-.3h-1.6c0,.7,0,1.3.1,1.9h0ZM430.09,29.44l-1.5.7c-.1.1-.1.2-.1.3.1.4.2.8.3,1.2.1.4.1.8.1,1.2,0,.1.1.2.2.3l1.6-.1c0-.6,0-1.2-.1-1.8-.1-.7-.3-1.3-.5-1.8h0ZM427.59,28.94c.1.2.4.2.6.1s.2-.4.1-.6h0s.1,0,.1-.1c.2-.1.2-.4.1-.6s-.4-.2-.6-.1l-.1.1h0c-.1-.2-.4-.2-.6-.1s-.2.4-.1.6c.1.1.3.2.4.2h0s-.1,0-.1.1c-.3.1-.6,0-.8-.2l.4.6.4.6c-.2-.3-.2-.6,0-.8l.1-.1h0s0,.2.1.3ZM417.59,30.94c.2-.1.5-.2.6-.2-.1-.1-.2-.3-.4-.6-.1-.3-.2-.5-.3-.8-.2.1-.3.2-.6.3-.3.1-.6.2-.8.2.1.1.3.4.4.7.1.2.2.5.2.6.3.1.6-.1.9-.2ZM428.49,35.44c.2,0,.3-.1.5-.2.4-.2.7-.3.7-.3,0-.1-.2-.3-.4-.7-.1-.2-.1-.3-.3-.5-.1-.1-.2-.2-.4-.2s-.4.1-.5.3c-.1.2.1.5.2.6-.1,0-.1-.1-.2-.1-.3-.2-.4-.5-.3-.8l-.3.7-.3.7c.1-.3.5-.5.8-.4h.2c-.1,0-.4.1-.5.3-.1.2,0,.4.2.5.3.1.4.1.6.1ZM417.29,36.14c-.1.2-.1.4,0,.6.2.2.6.1.7,0h0c0,.1-.3.5-.1.7.1.2.4.2.6.1.1-.1.2-.2.3-.3.1-.2.1-.4.1-.6,0-.5.1-.8.1-.8h-.8c-.2,0-.4-.1-.6,0-.2.1-.3.2-.3.3ZM424.79,39.04c.1-.3,0-.6-.3-.7s-.6,0-.7.3,0,.6.3.7c.3.1.6,0,.7-.3ZM422.69,26.64c.1-.3,0-.6-.3-.7-.3-.1-.6,0-.7.3s0,.6.3.7c.2.1.6,0,.7-.3Z"/>
    <path class="st6" d="M428.09,38.54c-3.3,2.7-8.1,2.3-10.9-1-2.7-3.3-2.3-8.1,1-10.9,3.3-2.7,8.1-2.3,10.9,1,2.7,3.3,2.3,8.1-1,10.9h0Z"/>
  </g>
  <g>
    <path class="st3" d="M73.86,54.95c1.45,4.04,1.33,8.64-.65,12.85s-5.49,7.19-9.53,8.6c-4.04,1.45-8.64,1.33-12.85-.65-4.2-1.98-7.19-5.49-8.6-9.53-1.45-4.04-1.33-8.64.65-12.85,2.02-4.16,5.53-7.15,9.57-8.6,4.04-1.45,8.64-1.33,12.85.65,4.16,1.98,7.15,5.49,8.56,9.53h0ZM69.78,52.48c-2.22-3.23-5.57-5.25-9.13-5.9-3.6-.65-7.43.04-10.66,2.3-3.23,2.22-5.25,5.57-5.9,9.13-.65,3.6.04,7.43,2.3,10.66,2.22,3.23,5.57,5.25,9.13,5.9,3.6.65,7.43-.04,10.66-2.3,3.23-2.22,5.25-5.57,5.9-9.13.65-3.6-.08-7.39-2.3-10.66h0ZM81.34,44.52c8.89,12.85,5.66,30.46-7.23,39.34-12.85,8.89-30.46,5.66-39.34-7.23-8.85-12.85-5.61-30.46,7.27-39.34,12.85-8.85,30.46-5.61,39.3,7.23h0ZM81.22,44.56c-1.25-1.86-2.75-3.47-4.32-4.89l-4.24,4.08c-.24.36-.2.85.12,1.17,1.05,1.01,2.02,2.14,2.87,3.39.85,1.25,1.58,2.54,2.14,3.88.16.4.61.65,1.05.53l5.41-2.38c-.73-2.02-1.74-3.96-3.03-5.78h0ZM39.16,81.32l4.36-3.92c.24-.36.2-.85-.12-1.17-1.05-1.01-2.02-2.14-2.87-3.39s-1.58-2.54-2.14-3.88c-.16-.4-.61-.65-1.05-.53l-5.53,2.26c.73,2.02,1.74,3.96,3.03,5.78,1.25,1.82,2.75,3.43,4.32,4.85h0ZM83.48,72.64c.97-2.02,1.62-4.08,2.06-6.18l-5.61-1.54c-.44-.04-.85.28-.97.69-.36,1.41-.85,2.79-1.49,4.16-.65,1.37-1.41,2.63-2.26,3.8-.28.36-.24.85.04,1.17l4.77,3.39c1.33-1.66,2.5-3.47,3.47-5.49h0ZM30.64,54.91l5.61,1.33c.44.04.85-.28.97-.69.36-1.41.85-2.79,1.49-4.16s1.41-2.63,2.26-3.8c.28-.36.24-.85-.04-1.17l-4.77-3.19c-1.37,1.66-2.54,3.47-3.51,5.49-.93,2.02-1.62,4.12-2.02,6.18h0ZM60.33,88.68c2.22-.16,4.36-.65,6.38-1.33l-1.58-5.74c-.2-.4-.65-.61-1.09-.48-1.41.4-2.87.65-4.36.77-1.49.12-2.99.08-4.44-.08-.44-.04-.85.2-1.01.65l-.48,5.9c2.18.4,4.36.48,6.58.32h0ZM48.98,33.98l2.06,5.57c.2.4.65.61,1.09.48,1.41-.4,2.87-.65,4.36-.77,1.49-.12,2.99-.08,4.44.08.44.04.85-.2,1.01-.65l.2-5.82c-2.1-.36-4.28-.48-6.5-.28-2.26.16-4.65.69-6.67,1.37h0ZM46.48,42.91c.73-.4.97-1.33.53-2.06-.4-.73-1.33-.97-2.06-.53-.04.04-.12.08-.16.12-.04-.16-.08-.28-.16-.44-.4-.73-1.33-.97-2.06-.53-.73.4-.97,1.33-.53,2.06.08.12.16.24.28.36-.04,0-.08.04-.08.04-.73.4-.97,1.33-.53,2.06.4.73,1.33.97,2.06.53.53-.32.81-.93.73-1.49h.04c.08.16.16.32.2.44.32.97-.12,2.06-1.09,2.75l2.18-1.25,2.18-1.25c-1.05.48-2.22.36-2.91-.4-.08-.08-.16-.2-.24-.36.04,0,.04-.04.08-.04.4.28,1.01.32,1.54,0ZM50.51,80.23c-.28-.89-.4-1.7-.48-2.38-.57.36-1.29.77-2.14,1.13-1.05.4-2.02.65-2.87.81.36.61.77,1.33,1.09,2.22.4,1.17.57,2.14.57,2.87.57-.44,1.45-.97,2.59-1.37.89-.32,1.74-.48,2.42-.57-.4-.73-.81-1.66-1.17-2.71ZM70.35,41.86c.04-.73-.24-1.29-.53-1.94-.61-1.49-.81-2.54-.85-2.83-.24.16-1.17.65-2.75,1.13-.65.2-1.29.36-1.82.81-.36.32-.65.77-.69,1.25-.08.69.24,1.49.89,1.82.81.36,1.7-.28,2.1-.65-.08.2-.24.44-.32.57-.69.89-1.98,1.33-3.11.81l2.42,1.17,2.42,1.17c-1.13-.53-1.62-1.86-1.37-2.91.04-.16.12-.36.2-.53,0,.53.04,1.62.85,2.02.65.32,1.49.04,1.98-.44.36-.44.57-.97.57-1.45ZM69.26,83.06c.57.4,1.49.53,2.1.08.93-.69.44-2.3.36-2.5,0-.08-.04-.12-.08-.2.04.04.08.08.16.12.16.12,1.58,1.09,2.5.4.61-.4.81-1.33.57-2.02-.16-.48-.53-.89-.93-1.13-.65-.4-1.29-.4-2.02-.48-1.7-.2-2.71-.53-3.03-.65,0,.32,0,1.41-.32,3.03-.16.69-.32,1.33-.16,2.06.16.53.44,1.01.85,1.29ZM82.31,56.4c-1.01-.48-2.26-.04-2.75.97s-.04,2.26.97,2.75,2.26.04,2.75-.97c.48-1.05.04-2.26-.97-2.75ZM36.42,60.2c-1.01-.48-2.26-.04-2.75.97s-.04,2.26.97,2.75,2.26.04,2.75-.97.08-2.26-.97-2.75Z"/>
    <path class="st4" d="M81.5,44.36c8.89,12.85,5.66,30.46-7.23,39.34-12.85,8.89-30.46,5.66-39.34-7.23-8.89-12.85-5.66-30.46,7.23-39.34s30.5-5.66,39.34,7.23h0Z"/>
  </g>
  <g>
    <path class="st1" d="M174.6,44.3c-.6.5-1.3.7-2.1.6-.8-.1-1.5-.5-1.9-1.1-.5-.6-.7-1.3-.6-2.1.1-.8.5-1.5,1.1-1.9.6-.5,1.3-.7,2.1-.6.8.1,1.5.5,1.9,1.1.5.6.7,1.3.6,2.1-.1.8-.5,1.5-1.1,1.9h0ZM174.8,43.5c.4-.5.5-1.2.5-1.8-.1-.6-.4-1.2-.9-1.6-.5-.4-1.2-.5-1.8-.5-.6.1-1.2.4-1.6.9-.4.5-.5,1.2-.5,1.8.1.6.4,1.2.9,1.6.5.4,1.2.5,1.8.5s1.2-.3,1.6-.9h0ZM176.7,45c-1.6,2.1-4.6,2.6-6.7,1-2.1-1.6-2.6-4.6-1-6.7,1.6-2.1,4.6-2.6,6.7-1,2.1,1.5,2.6,4.6,1,6.7h0ZM176.7,45c.2-.3.4-.6.5-1l-.9-.5q-.1,0-.2.1c-.1.2-.2.4-.4.6-.2.2-.3.4-.5.6q-.1.1,0,.2l.7.7c.3-.2.5-.4.8-.7h0ZM168.5,40.2l.9.5q.1,0,.2-.1c.1-.2.2-.4.4-.6.2-.2.3-.4.5-.6q.1-.1,0-.2l-.7-.8c-.3.2-.5.5-.8.8-.2.3-.4.6-.5,1h0ZM172.3,46.8h1.1l-.1-1c0-.1-.1-.1-.2-.1h-.8c-.3,0-.5-.1-.7-.2q-.1,0-.2.1l-.3.9c.4.2.8.3,1.2.3h0ZM172.3,37.4l.1,1c0,.1.1.1.2.1h.8c.3,0,.5.1.7.2q.1,0,.2-.1l.3-.9c-.3-.1-.7-.2-1.1-.3-.5-.1-.9-.1-1.2,0h0ZM168.4,44c.1.3.3.7.6,1l.8-.6q.1-.1,0-.2c-.1-.2-.3-.4-.4-.7-.1-.2-.2-.5-.2-.7,0-.1-.1-.1-.2-.1l-1,.2c.2.4.3.7.4,1.1h0ZM176.6,39.2l-.8.6q-.1.1,0,.2c.1.2.3.4.4.7.1.2.2.5.2.7,0,.1.1.1.2.1l.9-.3c-.1-.4-.2-.7-.3-1.1-.1-.3-.4-.6-.6-.9h0ZM175,39.3c.1.1.3.1.4,0,.1-.1.1-.3,0-.4h0l.1-.1c.1-.1.1-.3,0-.4-.1-.1-.3-.1-.4,0v.1h0c-.1-.1-.3-.1-.4,0-.1.1-.1.3,0,.4.1.1.2.1.3,0h0l-.1.1c-.1.1-.3.1-.5,0l.3.3.3.3c-.1-.1-.2-.3-.1-.5v-.1h0c0,.1.1.2.1.3ZM169.3,41.9c.1-.1.3-.2.4-.2-.1-.1-.2-.2-.3-.3s-.2-.3-.3-.4c-.1.1-.2.2-.3.3-.2.1-.3.2-.4.2.1.1.2.2.4.3.1.1.2.3.2.4,0,0,.1-.1.3-.3ZM176.5,43.1c.1,0,.2-.1.3-.2.2-.2.4-.3.4-.3,0,0-.2-.2-.3-.4-.1-.1-.1-.2-.2-.2s-.2-.1-.2,0c-.1,0-.2.1-.2.2s.1.3.2.3h-.1c-.2-.1-.3-.2-.3-.5l-.1.5-.1.5c0-.2.2-.4.4-.4h.1c-.1,0-.3.1-.3.2s.1.2.2.3c0,0,.1,0,.2,0ZM169.8,45.1c0,.1,0,.3.1.3.2.1.4-.1.4-.1h0s-.1.3.1.4c.1.1.3.1.4,0q.1-.1.1-.2v-.4c-.1-.3-.1-.5-.1-.5,0,0-.2.1-.5.1-.1,0-.2,0-.3.1-.1.2-.2.2-.2.3ZM174.8,45.8c0-.2-.1-.4-.3-.4s-.4.1-.4.3.1.4.3.4.4-.1.4-.3ZM171.7,38.6c0-.2-.1-.4-.3-.4s-.4.1-.4.3.1.4.3.4c.2,0,.4-.1.4-.3Z"/>
    <path class="st5" d="M176.7,45c-1.6,2.1-4.6,2.6-6.7,1-2.1-1.6-2.6-4.6-1-6.7,1.6-2.1,4.6-2.6,6.7-1,2.2,1.6,2.6,4.6,1,6.7h0Z"/>
  </g>
</svg>