<?xml version="1.0" encoding="utf-8"?>
<!-- Generator: Adobe Illustrator 27.5.0, SVG Export Plug-In . SVG Version: 6.00 Build 0)  -->
<svg version="1.1" id="Layer_1" xmlns="http://www.w3.org/2000/svg" xmlns:xlink="http://www.w3.org/1999/xlink" x="0px" y="0px"
	 viewBox="0 0 500 74.2" style="enable-background:new 0 0 500 74.2;" xml:space="preserve">
<style type="text/css">
	.st0{opacity:0.33;}
	.st1{fill:#FFFFFF;}
	.st2{fill-rule:evenodd;clip-rule:evenodd;fill:#FFFFFF;}
	.st3{fill:none;stroke:#FFFFFF;stroke-width:0.25;stroke-miterlimit:10;}
	.st4{fill:#003762;}
</style>
<g class="st0">
	<g>
		<path class="st1" d="M87.1,49.3C124.5,29.9,155,26,175.3,25.7c58.2-0.6,80.3,28.7,138,18.2c14.9-2.7,27.4-7.2,50.5-7.4
			c20.4-0.1,40.6,3.1,59.9,9.4v18.2H87.1V49.3z"/>
	</g>
	<g>
		<path class="st2" d="M264.4,36.8c0.6,1.7,0.6,3.7-0.3,5.6c-0.9,1.8-2.4,3.1-4.1,3.7c-1.7,0.6-3.7,0.6-5.6-0.3
			c-1.8-0.9-3.1-2.4-3.7-4.1c-0.6-1.7-0.6-3.7,0.3-5.6c0.9-1.8,2.4-3.1,4.1-3.7c1.7-0.6,3.7-0.6,5.6,0.3
			C262.4,33.5,263.7,35,264.4,36.8L264.4,36.8z M262.6,35.7c-1-1.4-2.4-2.3-4-2.6s-3.2,0-4.6,1c-1.4,1-2.3,2.4-2.6,4s0,3.2,1,4.6
			c1,1.4,2.4,2.3,4,2.6s3.2,0,4.6-1s2.3-2.4,2.6-4C263.9,38.8,263.5,37.1,262.6,35.7L262.6,35.7L262.6,35.7z M267.6,32.3
			c3.8,5.6,2.4,13.2-3.1,17c-5.6,3.8-13.2,2.4-17-3.1c-3.8-5.6-2.4-13.2,3.1-17C256.1,25.3,263.8,26.7,267.6,32.3L267.6,32.3z
			 M267.5,32.3c-0.5-0.8-1.2-1.5-1.9-2.1l-1.8,1.8c-0.1,0.2-0.1,0.4,0.1,0.5c0.5,0.4,0.9,0.9,1.2,1.5c0.4,0.5,0.7,1.1,0.9,1.7
			c0.1,0.2,0.3,0.3,0.5,0.2l2.3-1C268.5,33.9,268.1,33.1,267.5,32.3L267.5,32.3z M249.3,48.2l1.9-1.7c0.1-0.2,0.1-0.4-0.1-0.5
			c-0.5-0.4-0.9-0.9-1.2-1.5c-0.4-0.5-0.7-1.1-0.9-1.7c-0.1-0.2-0.3-0.3-0.5-0.2l-2.4,1c0.3,0.9,0.8,1.7,1.3,2.5
			C248,46.9,248.6,47.6,249.3,48.2L249.3,48.2z M268.5,44.5c0.4-0.9,0.7-1.8,0.9-2.7l-2.4-0.7c-0.2,0-0.4,0.1-0.4,0.3
			c-0.2,0.6-0.4,1.2-0.6,1.8c-0.3,0.6-0.6,1.1-1,1.6c-0.1,0.2-0.1,0.4,0,0.5l2.1,1.5C267.6,46.1,268.1,45.3,268.5,44.5L268.5,44.5z
			 M245.6,36.8l2.4,0.6c0.2,0,0.4-0.1,0.4-0.3c0.2-0.6,0.4-1.2,0.6-1.8c0.3-0.6,0.6-1.1,1-1.6c0.1-0.2,0.1-0.4,0-0.5l-2.1-1.4
			c-0.6,0.7-1.1,1.5-1.5,2.4C246.1,35,245.8,35.9,245.6,36.8L245.6,36.8z M258.5,51.4c1-0.1,1.9-0.3,2.8-0.6l-0.7-2.5
			c-0.1-0.2-0.3-0.3-0.5-0.2c-0.6,0.2-1.2,0.3-1.9,0.3s-1.3,0-1.9,0c-0.2,0-0.4,0.1-0.4,0.3l-0.2,2.6
			C256.6,51.4,257.5,51.5,258.5,51.4L258.5,51.4z M253.6,27.7l0.9,2.4c0.1,0.2,0.3,0.3,0.5,0.2c0.6-0.2,1.2-0.3,1.9-0.3
			c0.6-0.1,1.3,0,1.9,0c0.2,0,0.4-0.1,0.4-0.3l0.1-2.5c-0.9-0.2-1.9-0.2-2.8-0.1C255.5,27.2,254.4,27.4,253.6,27.7L253.6,27.7z
			 M252.5,31.6c0.3-0.2,0.4-0.6,0.2-0.9c-0.2-0.3-0.6-0.4-0.9-0.2c0,0-0.1,0-0.1,0.1c0-0.1,0-0.1-0.1-0.2c-0.2-0.3-0.6-0.4-0.9-0.2
			c-0.3,0.2-0.4,0.6-0.2,0.9c0,0.1,0.1,0.1,0.1,0.2l0,0c-0.3,0.2-0.4,0.6-0.2,0.9c0.2,0.3,0.6,0.4,0.9,0.2c0.2-0.1,0.3-0.4,0.3-0.6
			l0,0c0,0.1,0.1,0.1,0.1,0.2c0.1,0.4-0.1,0.9-0.5,1.2l0.9-0.5l0.9-0.5c-0.5,0.2-1,0.2-1.3-0.2c0,0-0.1-0.1-0.1-0.2l0,0
			C252,31.7,252.3,31.7,252.5,31.6z M254.2,47.7c-0.1-0.4-0.2-0.7-0.2-1c-0.2,0.2-0.6,0.3-0.9,0.5c-0.5,0.2-0.9,0.3-1.2,0.3
			c0.2,0.3,0.3,0.6,0.5,1c0.2,0.5,0.2,0.9,0.2,1.2c0.2-0.2,0.6-0.4,1.1-0.6c0.4-0.1,0.8-0.2,1-0.2C254.6,48.6,254.4,48.2,254.2,47.7
			z M262.8,31.1c0-0.3-0.1-0.6-0.2-0.8c-0.3-0.6-0.3-1.1-0.4-1.2c-0.1,0.1-0.5,0.3-1.2,0.5c-0.3,0.1-0.6,0.2-0.8,0.3
			c-0.2,0.1-0.3,0.3-0.3,0.5c0,0.3,0.1,0.6,0.4,0.8s0.7-0.1,0.9-0.3c0,0.1-0.1,0.2-0.1,0.2c-0.3,0.4-0.9,0.6-1.3,0.3l1,0.5l1,0.5
			c-0.5-0.2-0.7-0.8-0.6-1.3c0-0.1,0.1-0.2,0.1-0.2c0,0.2,0,0.7,0.4,0.9c0.3,0.1,0.6,0,0.9-0.2C262.7,31.6,262.8,31.3,262.8,31.1z
			 M262.4,49c0.2,0.2,0.6,0.2,0.9,0c0.4-0.3,0.2-1,0.2-1.1v-0.1c0,0,0,0,0.1,0.1s0.7,0.5,1.1,0.2c0.3-0.2,0.3-0.6,0.2-0.9
			c-0.1-0.2-0.2-0.4-0.4-0.5c-0.3-0.2-0.6-0.2-0.9-0.2c-0.7-0.1-1.2-0.2-1.3-0.3c0,0.1,0,0.6-0.1,1.3c-0.1,0.3-0.1,0.6-0.1,0.9
			C262.1,48.6,262.2,48.8,262.4,49z M268,37.4c-0.4-0.2-1,0-1.2,0.4s0,1,0.4,1.2s1,0,1.2-0.4S268.4,37.6,268,37.4z M248.1,39.1
			c-0.4-0.2-1,0-1.2,0.4s0,1,0.4,1.2s1,0,1.2-0.4C248.8,39.8,248.6,39.3,248.1,39.1z"/>
		<path class="st3" d="M267.7,32.2c3.8,5.6,2.4,13.2-3.1,17c-5.6,3.8-13.2,2.4-17-3.1c-3.8-5.6-2.4-13.2,3.1-17
			C256.2,25.2,263.8,26.6,267.7,32.2L267.7,32.2z"/>
	</g>
	<g>
		<path class="st2" d="M203.8,16.4c-0.5,1-1.3,1.8-2.4,2.1c-1.1,0.4-2.2,0.3-3.2-0.2s-1.8-1.3-2.1-2.4c-0.4-1.1-0.3-2.2,0.2-3.2
			s1.3-1.8,2.4-2.1c1.1-0.4,2.2-0.3,3.2,0.2s1.8,1.3,2.1,2.4C204.4,14.3,204.3,15.5,203.8,16.4L203.8,16.4z M203.5,15.3
			c0.2-1,0-1.9-0.5-2.7c-0.5-0.8-1.3-1.3-2.3-1.5s-1.9,0-2.7,0.5s-1.3,1.3-1.5,2.3s0,1.9,0.5,2.7c0.5,0.8,1.3,1.3,2.3,1.5
			s1.9,0,2.7-0.5C202.8,17,203.3,16.2,203.5,15.3L203.5,15.3L203.5,15.3z M207,15.9c-0.7,3.8-4.5,6.3-8.3,5.6s-6.3-4.5-5.6-8.3
			s4.5-6.3,8.3-5.6C205.2,8.4,207.7,12.1,207,15.9L207,15.9z M206.9,15.9c0.1-0.5,0.1-1.1,0.1-1.6h-1.5c-0.1,0-0.2,0.1-0.2,0.2
			c0,0.4,0,0.7-0.1,1.1s-0.2,0.7-0.3,1.1c0,0.1,0,0.2,0.1,0.3l1.4,0.6C206.7,17,206.8,16.5,206.9,15.9L206.9,15.9z M193,14.8
			l1.5,0.1c0.1,0,0.2-0.1,0.2-0.2c0-0.4,0-0.7,0.1-1.1s0.2-0.7,0.3-1.1c0-0.1,0-0.2-0.1-0.3l-1.4-0.6c-0.2,0.5-0.4,1-0.5,1.6
			S193,14.3,193,14.8L193,14.8z M202.3,21.2c0.5-0.2,1-0.4,1.5-0.7l-0.7-1.3c-0.1-0.1-0.2-0.1-0.3-0.1c-0.3,0.2-0.6,0.3-1,0.5
			c-0.4,0.1-0.7,0.2-1.1,0.3c-0.1,0-0.2,0.1-0.2,0.2l0.2,1.4C201.2,21.5,201.8,21.4,202.3,21.2L202.3,21.2z M196.2,8.7l0.7,1.2
			c0.1,0.1,0.2,0.1,0.3,0.1c0.3-0.2,0.6-0.3,1-0.5s0.7-0.2,1.1-0.3c0.1,0,0.2-0.1,0.2-0.2l-0.3-1.4c-0.5,0-1.1,0.2-1.6,0.3
			C197.2,8.1,196.7,8.4,196.2,8.7L196.2,8.7z M195.4,19.9c0.4,0.4,0.9,0.7,1.4,0.9l0.8-1.3c0-0.1,0-0.2-0.1-0.3
			c-0.3-0.2-0.6-0.4-0.9-0.6c-0.3-0.2-0.5-0.5-0.8-0.8c-0.1-0.1-0.2-0.1-0.3-0.1l-1.1,0.9C194.6,19.1,195,19.5,195.4,19.9
			L195.4,19.9z M203.2,8.3l-0.6,1.3c0,0.1,0,0.2,0.1,0.3c0.3,0.2,0.6,0.4,0.9,0.6c0.3,0.2,0.5,0.5,0.8,0.8c0.1,0.1,0.2,0.1,0.3,0.1
			l1.1-1c-0.3-0.4-0.7-0.9-1.1-1.2C204.2,8.9,203.6,8.5,203.2,8.3L203.2,8.3z M201.1,9.4c0.2,0.1,0.4-0.1,0.5-0.3
			c0.1-0.2-0.1-0.4-0.3-0.5l0,0c0,0,0-0.1,0.1-0.1c0.1-0.2-0.1-0.4-0.3-0.5s-0.4,0.1-0.5,0.3v0.1l0,0c-0.2-0.1-0.4,0.1-0.5,0.3
			c-0.1,0.2,0.1,0.4,0.3,0.5c0.1,0,0.3,0,0.4-0.1l0,0v0.1c-0.1,0.2-0.4,0.3-0.7,0.3l0.6,0.2l0.6,0.2c-0.3-0.1-0.5-0.3-0.4-0.6V9.2
			l0,0C200.9,9.3,201,9.4,201.1,9.4z M195.2,16.7c0.1-0.2,0.2-0.4,0.3-0.5c-0.2,0-0.4-0.1-0.6-0.2c-0.3-0.1-0.5-0.2-0.6-0.4
			c0,0.2-0.1,0.4-0.2,0.6c-0.1,0.3-0.3,0.5-0.4,0.6c0.2,0,0.4,0.1,0.7,0.2c0.2,0.1,0.4,0.2,0.5,0.3C194.9,17.2,195,16.9,195.2,16.7z
			 M205.5,13.5c0.1-0.1,0.2-0.3,0.3-0.4c0.2-0.4,0.3-0.6,0.4-0.6c-0.1,0-0.3-0.1-0.7-0.3c-0.1-0.1-0.3-0.2-0.5-0.2
			c-0.1,0-0.3,0-0.3,0.1c-0.1,0.1-0.2,0.3-0.2,0.5c0.1,0.2,0.3,0.3,0.5,0.3c-0.1,0-0.1,0-0.2,0c-0.3,0-0.6-0.1-0.7-0.4l0.2,0.6
			l0.2,0.6c-0.1-0.3,0-0.6,0.3-0.8c0,0,0.1,0,0.1-0.1c-0.1,0.1-0.3,0.3-0.2,0.5s0.3,0.3,0.4,0.3C205.3,13.6,205.4,13.6,205.5,13.5z
			 M197.9,20.5c0,0.2,0.2,0.4,0.4,0.4c0.3,0,0.5-0.3,0.5-0.4l0,0c0,0,0,0,0,0.1s0.1,0.5,0.4,0.5c0.2,0,0.4-0.1,0.5-0.3
			c0.1-0.1,0.1-0.2,0-0.4c0-0.2-0.2-0.3-0.3-0.4c-0.3-0.3-0.4-0.6-0.4-0.7c-0.1,0.1-0.3,0.2-0.6,0.5c-0.2,0.1-0.3,0.2-0.4,0.3
			C198,20.3,197.9,20.4,197.9,20.5z M205,18.2c-0.1-0.3-0.4-0.4-0.7-0.3c-0.3,0.1-0.4,0.4-0.3,0.7c0.1,0.3,0.4,0.4,0.7,0.3
			C205,18.7,205.1,18.5,205,18.2z M196.3,10.6c-0.1-0.3-0.4-0.4-0.7-0.3s-0.4,0.4-0.3,0.7c0.1,0.3,0.4,0.4,0.7,0.3
			C196.2,11.2,196.4,10.9,196.3,10.6z"/>
		<path class="st3" d="M207,15.9c-0.7,3.8-4.5,6.3-8.3,5.6s-6.3-4.5-5.6-8.3s4.5-6.3,8.3-5.6S207.8,12.1,207,15.9L207,15.9z"/>
	</g>
	<g>
		<path class="st2" d="M302.8,19.5c-1.2,0.6-2.7,0.8-4.1,0.3s-2.5-1.5-3.1-2.7s-0.8-2.7-0.3-4.1s1.5-2.5,2.7-3.1s2.7-0.8,4.1-0.3
			s2.5,1.5,3.1,2.7s0.8,2.7,0.3,4.1C305,17.9,304,18.9,302.8,19.5L302.8,19.5z M303.4,18.2c0.9-0.8,1.4-2,1.5-3.1
			c0.1-1.2-0.3-2.3-1.1-3.3c-0.8-0.9-2-1.4-3.1-1.5c-1.2-0.1-2.3,0.3-3.3,1.1c-0.9,0.8-1.4,2-1.5,3.1c-0.1,1.2,0.3,2.3,1.1,3.3
			c0.8,0.9,2,1.4,3.1,1.5C301.3,19.4,302.5,19,303.4,18.2L303.4,18.2L303.4,18.2z M306.4,21.5c-3.7,3.3-9.4,3-12.7-0.8
			c-3.3-3.7-3-9.4,0.8-12.7c3.7-3.3,9.4-2.9,12.7,0.8C310.4,12.5,310.1,18.2,306.4,21.5L306.4,21.5z M306.3,21.5
			c0.5-0.5,1-1,1.4-1.5l-1.4-1.2c-0.1-0.1-0.3,0-0.4,0.1c-0.3,0.4-0.6,0.7-1,1s-0.7,0.6-1.1,0.8c-0.1,0.1-0.2,0.2-0.1,0.4l1,1.6
			C305.2,22.3,305.8,21.9,306.3,21.5L306.3,21.5z M293.1,9.6l1.4,1.2c0.1,0.1,0.3,0,0.4-0.1c0.3-0.4,0.6-0.7,1-1s0.7-0.6,1.1-0.8
			c0.1-0.1,0.2-0.2,0.1-0.4l-0.9-1.7c-0.6,0.3-1.2,0.7-1.7,1.2C294,8.5,293.5,9.1,293.1,9.6L293.1,9.6z M297.6,23.3
			c0.7,0.2,1.3,0.4,2,0.4l0.3-1.8c0-0.1-0.1-0.3-0.3-0.3c-0.5-0.1-0.9-0.2-1.4-0.3c-0.5-0.2-0.9-0.3-1.3-0.6c-0.1-0.1-0.3,0-0.4,0.1
			l-0.9,1.6C296.3,22.7,296.9,23,297.6,23.3L297.6,23.3z M301.1,5.9l-0.2,1.8c0,0.1,0.1,0.3,0.3,0.3c0.5,0.1,0.9,0.2,1.4,0.3
			c0.5,0.2,0.9,0.3,1.3,0.6c0.1,0.1,0.3,0,0.4-0.1l0.8-1.6c-0.6-0.4-1.2-0.7-1.9-0.9C302.5,6.1,301.8,6,301.1,5.9L301.1,5.9z
			 M291.6,16.6c0.1,0.7,0.4,1.3,0.7,2l1.7-0.7c0.1-0.1,0.2-0.2,0.1-0.4c-0.2-0.4-0.3-0.9-0.4-1.3c-0.1-0.5-0.1-0.9-0.1-1.4
			c0-0.1-0.1-0.3-0.2-0.3l-1.9,0.1C291.4,15.2,291.5,15.9,291.6,16.6L291.6,16.6z M308.4,10.9l-1.7,0.9c-0.1,0.1-0.2,0.2-0.1,0.4
			c0.2,0.4,0.3,0.9,0.4,1.3c0.1,0.5,0.1,0.9,0.1,1.4c0,0.1,0.1,0.3,0.2,0.3l1.8-0.2c0-0.7,0-1.4-0.2-2.1
			C309,12.2,308.7,11.5,308.4,10.9L308.4,10.9z M305.5,10.5c0.2,0.2,0.5,0.3,0.7,0.1c0.2-0.2,0.3-0.5,0.1-0.7l0,0c0,0,0.1,0,0.1-0.1
			c0.2-0.2,0.3-0.5,0.1-0.7c-0.2-0.2-0.5-0.3-0.7-0.1l-0.1,0.1l0,0c-0.2-0.2-0.5-0.3-0.7-0.1c-0.2,0.2-0.3,0.5-0.1,0.7
			c0.1,0.2,0.3,0.2,0.5,0.2l0,0l-0.1,0.1c-0.3,0.1-0.7,0-0.9-0.2l0.5,0.6l0.5,0.6c-0.2-0.3-0.2-0.7,0-0.9l0.1-0.1l0,0
			C305.4,10.1,305.4,10.3,305.5,10.5z M293.9,13.2c0.3-0.1,0.5-0.2,0.7-0.2c-0.1-0.2-0.3-0.4-0.4-0.6c-0.2-0.3-0.3-0.6-0.4-0.9
			c-0.2,0.1-0.4,0.3-0.7,0.4c-0.4,0.2-0.7,0.3-0.9,0.3c0.2,0.2,0.4,0.4,0.5,0.8c0.1,0.3,0.2,0.5,0.3,0.7
			C293.3,13.5,293.6,13.3,293.9,13.2z M306.8,17.9c0.2,0,0.4-0.1,0.6-0.2c0.4-0.2,0.8-0.4,0.9-0.4c-0.1-0.1-0.2-0.3-0.5-0.8
			c-0.1-0.2-0.2-0.4-0.3-0.5c-0.1-0.1-0.3-0.2-0.4-0.2c-0.2,0-0.5,0.1-0.5,0.3c-0.1,0.3,0.2,0.5,0.3,0.6c-0.1,0-0.1-0.1-0.2-0.1
			c-0.3-0.2-0.5-0.6-0.4-0.9l-0.3,0.8l-0.3,0.8c0.1-0.4,0.5-0.6,0.9-0.5c0.1,0,0.1,0,0.2,0c-0.2,0-0.5,0.1-0.6,0.3s0,0.5,0.2,0.6
			C306.4,17.9,306.6,18,306.8,17.9z M293.7,19.2c-0.1,0.2-0.1,0.5,0.1,0.7c0.3,0.3,0.7,0.1,0.8,0c0,0,0,0,0.1,0c0,0,0,0,0,0.1
			s-0.3,0.5,0,0.8c0.2,0.2,0.5,0.2,0.7,0.1c0.1-0.1,0.3-0.2,0.3-0.3c0.1-0.2,0.1-0.4,0.1-0.7c0-0.5,0.1-0.9,0.1-1
			c-0.1,0-0.4,0.1-1,0c-0.2,0-0.4-0.1-0.7,0C294,18.9,293.8,19,293.7,19.2z M302.7,22.3c0.1-0.3-0.1-0.7-0.4-0.8s-0.7,0.1-0.8,0.4
			s0.1,0.7,0.4,0.8S302.5,22.6,302.7,22.3z M299.7,8c0.1-0.3-0.1-0.7-0.4-0.8c-0.3-0.1-0.7,0.1-0.8,0.4c-0.1,0.3,0.1,0.7,0.4,0.8
			C299.2,8.5,299.6,8.3,299.7,8z"/>
		<path class="st3" d="M306.4,21.5c-3.7,3.3-9.4,3-12.7-0.8c-3.3-3.7-3-9.4,0.8-12.7c3.7-3.3,9.4-3,12.7,0.8S310.1,18.3,306.4,21.5
			L306.4,21.5z"/>
	</g>
</g>
<path class="st4" d="M-7,45.4v37.7h514V16c-29-9.9-61.8-6.6-91.8,1.3c-33.8,8.9-69.3,26.5-103.6,33.7c-35.2,7.4-72,7-107.3-0.2
	c-24.8-5-48.8-13.3-73.7-17.9C84.5,24.4,36.9,28.7-7,45.4z"/>
</svg>
