<?xml version="1.0" encoding="utf-8"?>
<!-- Generator: Adobe Illustrator 27.5.0, SVG Export Plug-In . SVG Version: 6.00 Build 0)  -->
<svg version="1.1" id="Layer_1" xmlns="http://www.w3.org/2000/svg" xmlns:xlink="http://www.w3.org/1999/xlink" x="0px" y="0px"
	 viewBox="0 0 500 74.2" style="enable-background:new 0 0 500 74.2;" xml:space="preserve">
<style type="text/css">
	.st0{fill:#4195D1;}
	.st1{fill-rule:evenodd;clip-rule:evenodd;fill:#003762;}
	.st2{fill:#FFFFFF;}
	.st3{fill-rule:evenodd;clip-rule:evenodd;fill:#4195D1;}
	.st4{fill:none;stroke:#4195D1;stroke-width:0.5;stroke-miterlimit:10;}
	.st5{fill:none;stroke:#4195D1;stroke-width:0.25;stroke-miterlimit:10;}
</style>
<g>
	<path class="st0" d="M87.1,65.3C124.5,45.9,155,42,175.3,41.7c58.2-0.6,80.3,28.7,138,18.2c14.9-2.7,27.4-7.2,50.5-7.4
		c20.4-0.1,40.6,3.1,59.9,9.4v18.2H87.1"/>
</g>
<path class="st1" d="M440.7,30.8c4.7-3.4,11.2-2.4,14.6,2.2c1.4,1.9,2.1,4.2,2,6.4c0.6-0.8,1.4-1.6,2.3-2.3
	c4.7-3.4,11.2-2.4,14.6,2.2c3.4,4.7,2,11.5-2.2,14.6s-9.3,2-12.9-0.6c0.3,0.4,1,1.5,1.4,2s0.8,1.2,1.3,1.6c0.4,0.5,0.9,0.8,1.4,1.2
	c0.5,0.3,1,0.6,1.5,0.9c0.5,0.2,1.1,0.4,1.7,0.6c0.6,0.2,1.2,0.4,1.9,0.6c0.7,0.2,1.4,0.3,1.8,0.3c0.5,0,0.7,0,0.9,0
	c0.1,0,0.1,0-1.7,1.3c-1.8,1.4-5.5,4.1-7.3,5.4c-1.8,1.4-1.8,1.4-1.8,1.1c0-0.2,0.1-0.7,0.2-1.5c0.1-0.7,0.2-1.7,0.2-2.7
	c0-0.9-0.1-1.7-0.3-2.5c-0.2-0.8-0.4-1.7-0.8-2.6c-0.4-0.9-1.1-2-1.8-2.8c-0.4-0.4-0.7-0.8-1.1-1.1c1.8,4.4,0.5,9.5-3.5,12.5
	c-4.7,3.4-11.2,2.4-14.6-2.2c-3.4-4.7-2.4-11.2,2.2-14.6c5.4-4,2.2,0.6-2.4-5.6C435,40.8,436,34.3,440.7,30.8L440.7,30.8z"/>
<path class="st2" d="M-7,61.4v18.7h514V32c-29-9.9-61.8-6.6-91.8,1.3c-33.8,8.9-69.3,26.5-103.6,33.7c-35.2,7.4-72,7-107.3-0.2
	c-24.8-5-48.8-13.3-73.7-17.9C84.5,40.4,36.9,44.7-7,61.4z"/>
<g>
	<path class="st3" d="M196.5,49.5c-1.5,2.3-3.9,4-6.7,4.6s-5.7,0-8-1.5s-4-3.9-4.6-6.7s0-5.7,1.5-8s3.9-4,6.7-4.6s5.7,0,8,1.5
		s4,3.9,4.6,6.7C198.6,44.4,197.9,47.3,196.5,49.5L196.5,49.5z M196.2,46.6c0.8-2.4,0.5-4.9-0.5-6.9c-1.1-2.1-2.8-3.7-5.2-4.5
		s-4.9-0.5-6.9,0.5c-2.1,1.1-3.7,2.8-4.5,5.2s-0.5,4.9,0.5,6.9c1.1,2.1,2.8,3.7,5.2,4.5s4.9,0.5,6.9-0.5
		C193.7,50.7,195.3,48.9,196.2,46.6L196.2,46.6L196.2,46.6z M204.6,49.4c-3.1,9.4-13.2,14.5-22.6,11.4c-9.4-3.1-14.5-13.2-11.4-22.6
		s13.2-14.5,22.6-11.4C202.6,29.9,207.7,39.9,204.6,49.4L204.6,49.4z M204.5,49.3c0.4-1.3,0.7-2.7,0.8-4l-3.7-0.6
		c-0.3,0-0.5,0.2-0.5,0.5c-0.1,0.9-0.4,1.8-0.6,2.8c-0.3,0.9-0.7,1.7-1.1,2.5c-0.2,0.2-0.1,0.6,0.1,0.7l3.3,1.8
		C203.5,51.9,204.1,50.7,204.5,49.3L204.5,49.3z M169.9,42.1l3.6,0.7c0.3,0,0.5-0.2,0.5-0.5c0.1-0.9,0.4-1.8,0.6-2.8
		c0.3-0.9,0.7-1.7,1.1-2.5c0.2-0.2,0.1-0.6-0.1-0.7l-3.3-2c-0.8,1.2-1.3,2.4-1.8,3.8C170.2,39.4,170,40.8,169.9,42.1L169.9,42.1z
		 M191.2,61.2c1.4-0.3,2.7-0.7,3.9-1.3l-1.4-3.4c-0.2-0.3-0.5-0.4-0.7-0.2c-0.9,0.3-1.8,0.7-2.7,0.9s-1.9,0.3-2.8,0.3
		c-0.3,0-0.5,0.2-0.6,0.4l0.1,3.7C188.5,61.5,189.9,61.5,191.2,61.2L191.2,61.2z M180,27.7l1.5,3.4c0.2,0.3,0.5,0.4,0.7,0.2
		c0.9-0.3,1.8-0.7,2.7-0.9s1.9-0.3,2.8-0.3c0.3,0,0.5-0.2,0.6-0.4l-0.2-3.6c-1.4,0-2.8,0-4.1,0.3C182.5,26.7,181.2,27.1,180,27.7
		L180,27.7z M174.3,55.6c0.9,1.1,2,2,3.1,2.7l2.3-3c0.1-0.3,0.1-0.6-0.2-0.8c-0.7-0.5-1.5-1.2-2.1-1.9s-1.1-1.5-1.7-2.3
		c-0.2-0.3-0.5-0.4-0.7-0.3l-3.1,2C172.5,53.4,173.3,54.5,174.3,55.6L174.3,55.6z M197.6,29l-2,3.1c-0.1,0.3-0.1,0.6,0.2,0.8
		c0.7,0.5,1.5,1.2,2.1,1.9s1.1,1.5,1.7,2.3c0.2,0.3,0.5,0.4,0.7,0.3l3-2.1c-0.6-1.2-1.4-2.3-2.3-3.4S198.7,29.7,197.6,29L197.6,29z
		 M192.1,31.1c0.5,0.2,1,0,1.3-0.5c0.2-0.5,0-1-0.5-1.3l-0.1-0.1c0.1-0.1,0.1-0.2,0.2-0.2c0.2-0.5,0-1-0.5-1.3c-0.5-0.2-1,0-1.3,0.5
		c-0.1,0.1,0,0.2-0.1,0.3c0,0,0,0-0.1-0.1c-0.5-0.2-1,0-1.3,0.5c-0.2,0.5,0,1,0.5,1.3c0.4,0.2,0.7,0,1-0.2l0,0
		c-0.1,0.1-0.1,0.2-0.2,0.2c-0.4,0.6-1,0.7-1.8,0.5l1.6,0.7l1.4,0.6c-0.6-0.3-1-1-0.9-1.7c0.1-0.1,0-0.2,0.1-0.3l0,0
		C191.5,30.7,191.7,30.9,192.1,31.1z M174.8,47.5c0.4-0.5,0.7-0.9,1-1.1c-0.4-0.2-0.8-0.4-1.4-0.7c-0.6-0.3-1.2-0.8-1.5-1.1
		c-0.2,0.4-0.4,0.9-0.7,1.4c-0.4,0.7-0.8,1.1-1.2,1.5c0.4,0.1,1,0.4,1.7,0.8c0.5,0.4,0.9,0.7,1.2,1C174.1,48.6,174.3,48,174.8,47.5z
		 M201.8,42.8c0.3-0.3,0.6-0.6,0.8-1c0.5-0.9,0.9-1.4,1.1-1.5c-0.2-0.1-0.8-0.3-1.6-1c-0.3-0.2-0.6-0.5-1.1-0.6
		c-0.3-0.1-0.6,0-0.8,0.1c-0.4,0.2-0.7,0.7-0.6,1.2c0.1,0.6,0.8,0.7,1.1,0.8c-0.1,0-0.3,0-0.4,0.1c-0.7,0-1.4-0.4-1.5-1.3l0.4,1.7
		l0.4,1.7c-0.2-0.8,0.3-1.5,1-1.8c0.1-0.1,0.2-0.1,0.3-0.1c-0.3,0.2-0.8,0.7-0.7,1.2c0.1,0.4,0.5,0.8,1,0.9
		C201.2,43.1,201.6,43,201.8,42.8z M180.5,57.9c0,0.5,0.3,1,0.8,1.1c0.7,0.2,1.3-0.6,1.5-0.8l0.1-0.1c0,0-0.1,0.1,0,0.1
		c0,0.1,0.1,1.2,0.8,1.5c0.4,0.2,1-0.1,1.2-0.5c0.2-0.2,0.2-0.6,0.2-1c-0.1-0.4-0.3-0.8-0.5-1.2c-0.6-0.9-0.8-1.6-0.8-1.7
		c-0.1,0.2-0.7,0.6-1.6,1c-0.4,0.2-0.8,0.4-1.1,0.7C180.6,57.4,180.5,57.7,180.5,57.9z M199,54.4c-0.1-0.7-0.9-1.2-1.5-1
		c-0.7,0.1-1.2,0.9-1,1.5s0.9,1.2,1.5,1C198.7,55.8,199.1,55,199,54.4z M179.5,32.7c-0.1-0.7-0.9-1.2-1.5-1c-0.7,0.1-1.2,0.9-1,1.5
		c0.1,0.7,0.9,1.2,1.5,1C179.2,34.1,179.6,33.4,179.5,32.7z"/>
	<path class="st4" d="M204.7,49.4c-3.1,9.4-13.2,14.5-22.6,11.4c-9.4-3.1-14.5-13.2-11.4-22.6s13.2-14.5,22.6-11.4
		C202.8,29.9,207.8,39.9,204.7,49.4L204.7,49.4z"/>
</g>
<g>
	<path class="st3" d="M236.4,35.3c-1.1,0.5-2.3,0.6-3.5,0.1c-1.2-0.4-2.1-1.3-2.6-2.4c-0.5-1.1-0.6-2.3-0.1-3.5
		c0.4-1.2,1.3-2.1,2.4-2.6s2.3-0.6,3.5-0.1c1.2,0.4,2.1,1.3,2.6,2.4s0.6,2.3,0.1,3.5C238.4,33.9,237.5,34.8,236.4,35.3L236.4,35.3z
		 M237,34.1c0.8-0.7,1.3-1.6,1.4-2.6c0.1-1-0.2-2-0.9-2.8s-1.6-1.3-2.6-1.4s-2,0.2-2.8,0.9c-0.8,0.7-1.3,1.6-1.4,2.6s0.2,2,0.9,2.8
		s1.6,1.3,2.6,1.4C235.1,35.1,236.2,34.8,237,34.1L237,34.1L237,34.1z M239.4,37c-3.3,2.7-8.1,2.3-10.9-1c-2.7-3.3-2.3-8.1,1-10.9
		c3.3-2.7,8.1-2.3,10.9,1C243.2,29.4,242.7,34.3,239.4,37L239.4,37z M239.4,37c0.5-0.4,0.9-0.8,1.2-1.3l-1.2-1.1
		c-0.1-0.1-0.2,0-0.3,0.1c-0.3,0.3-0.5,0.6-0.9,0.9c-0.3,0.3-0.7,0.5-1,0.7c-0.1,0.1-0.2,0.2-0.1,0.3l0.8,1.4
		C238.4,37.7,238.9,37.4,239.4,37L239.4,37z M228.4,26.5l1.2,1.1c0.1,0.1,0.2,0,0.3-0.1c0.3-0.3,0.5-0.6,0.9-0.9
		c0.3-0.3,0.7-0.5,1-0.7c0.1-0.1,0.2-0.2,0.1-0.3l-0.7-1.4c-0.5,0.3-1,0.6-1.5,1C229.1,25.6,228.7,26,228.4,26.5L228.4,26.5z
		 M231.8,38.3c0.6,0.2,1.2,0.3,1.7,0.4l0.3-1.6c0-0.1-0.1-0.2-0.2-0.2c-0.4-0.1-0.8-0.2-1.2-0.3s-0.8-0.3-1.1-0.5
		c-0.1-0.1-0.2,0-0.3,0l-0.8,1.4C230.7,37.8,231.3,38.1,231.8,38.3L231.8,38.3z M235.4,23.5l-0.2,1.6c0,0.1,0.1,0.2,0.2,0.2
		c0.4,0.1,0.8,0.2,1.2,0.3s0.8,0.3,1.1,0.5c0.1,0.1,0.2,0,0.3,0l0.8-1.4c-0.5-0.3-1-0.6-1.6-0.8C236.5,23.7,235.9,23.6,235.4,23.5
		L235.4,23.5z M226.9,32.4c0.1,0.6,0.3,1.2,0.5,1.7l1.5-0.6c0.1-0.1,0.1-0.2,0.1-0.3c-0.1-0.4-0.2-0.8-0.3-1.2
		c-0.1-0.4-0.1-0.8-0.1-1.2c0-0.1-0.1-0.2-0.2-0.3h-1.6C226.8,31.2,226.8,31.8,226.9,32.4L226.9,32.4z M241.5,28l-1.5,0.7
		c-0.1,0.1-0.1,0.2-0.1,0.3c0.1,0.4,0.2,0.8,0.3,1.2c0.1,0.4,0.1,0.8,0.1,1.2c0,0.1,0.1,0.2,0.2,0.3l1.6-0.1c0-0.6,0-1.2-0.1-1.8
		C241.9,29.1,241.7,28.5,241.5,28L241.5,28z M239,27.5c0.1,0.2,0.4,0.2,0.6,0.1s0.2-0.4,0.1-0.6l0,0c0,0,0.1,0,0.1-0.1
		c0.2-0.1,0.2-0.4,0.1-0.6s-0.4-0.2-0.6-0.1l-0.1,0.1l0,0c-0.1-0.2-0.4-0.2-0.6-0.1s-0.2,0.4-0.1,0.6c0.1,0.1,0.3,0.2,0.4,0.2l0,0
		c0,0-0.1,0-0.1,0.1c-0.3,0.1-0.6,0-0.8-0.2l0.4,0.6l0.4,0.6c-0.2-0.3-0.2-0.6,0-0.8l0.1-0.1l0,0C238.9,27.2,238.9,27.4,239,27.5z
		 M229,29.5c0.2-0.1,0.5-0.2,0.6-0.2c-0.1-0.1-0.2-0.3-0.4-0.6c-0.1-0.3-0.2-0.5-0.3-0.8c-0.2,0.1-0.3,0.2-0.6,0.3
		c-0.3,0.1-0.6,0.2-0.8,0.2c0.1,0.1,0.3,0.4,0.4,0.7c0.1,0.2,0.2,0.5,0.2,0.6C228.4,29.8,228.7,29.6,229,29.5z M239.9,34
		c0.2,0,0.3-0.1,0.5-0.2c0.4-0.2,0.7-0.3,0.7-0.3c0-0.1-0.2-0.3-0.4-0.7c-0.1-0.2-0.1-0.3-0.3-0.5c-0.1-0.1-0.2-0.2-0.4-0.2
		s-0.4,0.1-0.5,0.3s0.1,0.5,0.2,0.6c-0.1,0-0.1-0.1-0.2-0.1c-0.3-0.2-0.4-0.5-0.3-0.8l-0.3,0.7l-0.3,0.7c0.1-0.3,0.5-0.5,0.8-0.4
		c0,0,0.1,0,0.2,0c-0.1,0-0.4,0.1-0.5,0.3s0,0.4,0.2,0.5C239.6,34,239.7,34,239.9,34z M228.7,34.7c-0.1,0.2-0.1,0.4,0,0.6
		c0.2,0.2,0.6,0.1,0.7,0l0,0l0,0c0,0.1-0.3,0.5-0.1,0.7c0.1,0.2,0.4,0.2,0.6,0.1c0.1-0.1,0.2-0.2,0.3-0.3c0.1-0.2,0.1-0.4,0.1-0.6
		c0-0.5,0.1-0.8,0.1-0.8c-0.1,0-0.4,0-0.8,0c-0.2,0-0.4-0.1-0.6,0S228.7,34.6,228.7,34.7z M236.2,37.6c0.1-0.3,0-0.6-0.3-0.7
		c-0.3-0.1-0.6,0-0.7,0.3s0,0.6,0.3,0.7S236.1,37.9,236.2,37.6z M234.1,25.2c0.1-0.3,0-0.6-0.3-0.7s-0.6,0-0.7,0.3
		c-0.1,0.3,0,0.6,0.3,0.7C233.6,25.6,234,25.5,234.1,25.2z"/>
	<path class="st4" d="M239.5,37.1c-3.3,2.7-8.1,2.3-10.9-1c-2.7-3.3-2.3-8.1,1-10.9c3.3-2.7,8.1-2.3,10.9,1
		C243.2,29.5,242.8,34.3,239.5,37.1L239.5,37.1z"/>
</g>
<g>
	<path class="st3" d="M263.7,52.9c-0.8,0-1.4-0.4-1.9-1s-0.8-1.4-0.6-2.1c0-0.8,0.4-1.4,1-1.9s1.4-0.8,2.1-0.6c0.8,0,1.4,0.4,1.9,1
		s0.8,1.4,0.6,2.1c0,0.8-0.4,1.4-1,1.9C265.1,52.8,264.4,53,263.7,52.9L263.7,52.9z M264.3,52.4c0.6-0.1,1.2-0.5,1.6-1
		c0.3-0.5,0.5-1.1,0.4-1.8c-0.1-0.6-0.5-1.2-1-1.6c-0.5-0.3-1.1-0.5-1.8-0.4c-0.6,0.1-1.2,0.5-1.6,1c-0.3,0.5-0.5,1.1-0.4,1.8
		c0.1,0.6,0.5,1.2,1,1.6S263.6,52.6,264.3,52.4L264.3,52.4L264.3,52.4z M264.7,54.8c-2.6,0.4-5.1-1.2-5.6-3.8
		c-0.4-2.6,1.2-5.1,3.8-5.6c2.6-0.4,5.1,1.2,5.6,3.8C269.1,51.8,267.3,54.4,264.7,54.8L264.7,54.8z M264.7,54.8
		c0.4-0.1,0.7-0.2,1-0.4l-0.3-1c-0.1-0.1-0.1-0.1-0.2-0.1c-0.2,0.1-0.4,0.2-0.7,0.2s-0.5,0.1-0.8,0.1c-0.1,0-0.1,0-0.1,0.1v1
		C264,54.8,264.3,54.8,264.7,54.8L264.7,54.8z M262,45.7l0.3,1c0.1,0.1,0.1,0.1,0.2,0.1c0.2-0.1,0.4-0.2,0.7-0.2s0.5-0.1,0.8-0.1
		c0.1,0,0.1,0,0.1-0.1v-1.1c-0.4-0.1-0.7,0-1.1,0C262.7,45.4,262.4,45.5,262,45.7L262,45.7z M260.3,53.1c0.3,0.3,0.5,0.5,0.8,0.8
		l0.6-0.8c0.1-0.1,0-0.1-0.1-0.2c-0.1-0.1-0.4-0.3-0.6-0.5s-0.3-0.4-0.4-0.6c-0.1-0.1-0.1-0.1-0.2-0.1l-0.8,0.5
		C259.8,52.5,260,52.9,260.3,53.1L260.3,53.1z M266.7,46.3l-0.6,0.8c-0.1,0.1,0,0.1,0.1,0.2c0.1,0.1,0.4,0.3,0.6,0.5
		s0.3,0.4,0.4,0.6c0.1,0.1,0.1,0.1,0.2,0.1l0.8-0.5c-0.2-0.3-0.4-0.6-0.6-1C267.3,46.7,267,46.4,266.7,46.3L266.7,46.3z M259.3,48.4
		c-0.1,0.3-0.3,0.7-0.2,1.1l1,0.1c0.1,0,0.1,0,0.1-0.1c0.1-0.2,0.1-0.5,0.2-0.8c0.1-0.2,0.2-0.5,0.3-0.6c0.1-0.1,0-0.1-0.1-0.2
		l-0.9-0.5C259.7,47.8,259.5,48.1,259.3,48.4L259.3,48.4z M268.6,50.5l-1-0.1c-0.1,0-0.1,0-0.1,0.1c-0.1,0.2-0.1,0.5-0.2,0.8
		c-0.1,0.2-0.2,0.5-0.3,0.6c-0.1,0.1,0,0.1,0.1,0.2l0.9,0.4c0.2-0.4,0.3-0.6,0.5-1C268.6,51.3,268.5,50.9,268.6,50.5L268.6,50.5z
		 M267.4,49.5c0,0.1,0.2,0.3,0.3,0.3c0.1,0,0.3-0.2,0.3-0.3l0,0c0,0,0,0,0.1,0s0.3-0.2,0.3-0.3s-0.2-0.3-0.3-0.3c0,0,0,0-0.1,0.1
		l0,0c0-0.1-0.2-0.3-0.3-0.3c-0.1,0-0.3,0.2-0.3,0.3s0.1,0.2,0.2,0.2l0,0c0,0,0,0-0.1,0s-0.3-0.1-0.4-0.3v0.4v0.4
		c0-0.1,0.1-0.4,0.3-0.4c0,0,0,0,0.1-0.1l0,0C267.4,49.3,267.4,49.4,267.4,49.5z M261.4,47.5c0.1,0,0.4,0.1,0.4,0.1
		c0-0.1,0-0.3,0-0.4c0-0.1,0.1-0.4,0.1-0.5c-0.1,0-0.3,0-0.4,0c-0.2-0.1-0.4-0.1-0.4-0.1c0,0.1,0,0.3,0.1,0.5c0,0.1-0.1,0.4-0.1,0.4
		C261,47.5,261.1,47.5,261.4,47.5z M265.9,53.3c0.1,0.1,0.2,0.1,0.4,0.1c0.3,0,0.5,0.1,0.5,0.1s0-0.3,0.1-0.5c0-0.1,0.1-0.2,0-0.3
		s-0.1-0.2-0.1-0.1c-0.1-0.1-0.2-0.1-0.3,0c-0.1,0.1-0.1,0.3-0.1,0.4l-0.1-0.1c-0.1-0.2-0.1-0.4,0.1-0.6l-0.4,0.3l-0.4,0.3
		c0.1-0.1,0.4-0.2,0.6,0l0.1,0.1c-0.1-0.1-0.3-0.1-0.4-0.1C265.8,53,265.8,53.1,265.9,53.3C265.7,53.2,265.8,53.2,265.9,53.3z
		 M259.6,50.2c-0.1,0.1-0.2,0.2-0.1,0.3c0.1,0.2,0.4,0.2,0.4,0.2l0,0l0,0c0,0-0.3,0.2-0.2,0.4c0,0.1,0.2,0.3,0.3,0.3
		c0.1,0,0.1,0,0.2-0.1s0.1-0.1,0.3-0.3c0.1-0.3,0.3-0.4,0.3-0.4s-0.2-0.1-0.4-0.3c-0.1-0.1-0.1-0.1-0.3-0.1
		C259.7,50.2,259.7,50.1,259.6,50.2z M262.8,54.1c0.1-0.1,0.2-0.4,0.1-0.5s-0.4-0.2-0.5-0.1c-0.1,0.1-0.2,0.4-0.1,0.5
		C262.4,54.2,262.6,54.2,262.8,54.1z M265.4,46.7c0.1-0.1,0.2-0.4,0.1-0.5s-0.4-0.2-0.5-0.1c-0.1,0.1-0.2,0.4-0.1,0.5
		C265.1,46.8,265.3,46.9,265.4,46.7z"/>
	<path class="st5" d="M264.7,54.8c-2.6,0.4-5.1-1.2-5.6-3.8c-0.4-2.6,1.2-5.1,3.8-5.6c2.6-0.4,5.1,1.2,5.6,3.8
		C269.1,51.9,267.3,54.4,264.7,54.8L264.7,54.8z"/>
</g>
</svg>
